%TF.GenerationSoftware,KiCad,Pcbnew,8.0.6*%
%TF.CreationDate,2024-12-02T01:00:14-05:00*%
%TF.ProjectId,Pixart pcb,50697861-7274-4207-9063-622e6b696361,rev?*%
%TF.SameCoordinates,Original*%
%TF.FileFunction,Legend,Top*%
%TF.FilePolarity,Positive*%
%FSLAX46Y46*%
G04 Gerber Fmt 4.6, Leading zero omitted, Abs format (unit mm)*
G04 Created by KiCad (PCBNEW 8.0.6) date 2024-12-02 01:00:14*
%MOMM*%
%LPD*%
G01*
G04 APERTURE LIST*
%ADD10C,0.150000*%
%ADD11C,0.100000*%
%ADD12C,0.120000*%
%ADD13C,0.000000*%
G04 APERTURE END LIST*
D10*
X121847619Y-82879819D02*
X121847619Y-81879819D01*
X121847619Y-81879819D02*
X122228571Y-81879819D01*
X122228571Y-81879819D02*
X122323809Y-81927438D01*
X122323809Y-81927438D02*
X122371428Y-81975057D01*
X122371428Y-81975057D02*
X122419047Y-82070295D01*
X122419047Y-82070295D02*
X122419047Y-82213152D01*
X122419047Y-82213152D02*
X122371428Y-82308390D01*
X122371428Y-82308390D02*
X122323809Y-82356009D01*
X122323809Y-82356009D02*
X122228571Y-82403628D01*
X122228571Y-82403628D02*
X121847619Y-82403628D01*
X122800000Y-82594104D02*
X123276190Y-82594104D01*
X122704762Y-82879819D02*
X123038095Y-81879819D01*
X123038095Y-81879819D02*
X123371428Y-82879819D01*
X123990476Y-81879819D02*
X123990476Y-82594104D01*
X123990476Y-82594104D02*
X123942857Y-82736961D01*
X123942857Y-82736961D02*
X123847619Y-82832200D01*
X123847619Y-82832200D02*
X123704762Y-82879819D01*
X123704762Y-82879819D02*
X123609524Y-82879819D01*
X124371429Y-81879819D02*
X125038095Y-81879819D01*
X125038095Y-81879819D02*
X124609524Y-82879819D01*
X125609524Y-81879819D02*
X125704762Y-81879819D01*
X125704762Y-81879819D02*
X125800000Y-81927438D01*
X125800000Y-81927438D02*
X125847619Y-81975057D01*
X125847619Y-81975057D02*
X125895238Y-82070295D01*
X125895238Y-82070295D02*
X125942857Y-82260771D01*
X125942857Y-82260771D02*
X125942857Y-82498866D01*
X125942857Y-82498866D02*
X125895238Y-82689342D01*
X125895238Y-82689342D02*
X125847619Y-82784580D01*
X125847619Y-82784580D02*
X125800000Y-82832200D01*
X125800000Y-82832200D02*
X125704762Y-82879819D01*
X125704762Y-82879819D02*
X125609524Y-82879819D01*
X125609524Y-82879819D02*
X125514286Y-82832200D01*
X125514286Y-82832200D02*
X125466667Y-82784580D01*
X125466667Y-82784580D02*
X125419048Y-82689342D01*
X125419048Y-82689342D02*
X125371429Y-82498866D01*
X125371429Y-82498866D02*
X125371429Y-82260771D01*
X125371429Y-82260771D02*
X125419048Y-82070295D01*
X125419048Y-82070295D02*
X125466667Y-81975057D01*
X125466667Y-81975057D02*
X125514286Y-81927438D01*
X125514286Y-81927438D02*
X125609524Y-81879819D01*
X126323810Y-81975057D02*
X126371429Y-81927438D01*
X126371429Y-81927438D02*
X126466667Y-81879819D01*
X126466667Y-81879819D02*
X126704762Y-81879819D01*
X126704762Y-81879819D02*
X126800000Y-81927438D01*
X126800000Y-81927438D02*
X126847619Y-81975057D01*
X126847619Y-81975057D02*
X126895238Y-82070295D01*
X126895238Y-82070295D02*
X126895238Y-82165533D01*
X126895238Y-82165533D02*
X126847619Y-82308390D01*
X126847619Y-82308390D02*
X126276191Y-82879819D01*
X126276191Y-82879819D02*
X126895238Y-82879819D01*
X127800000Y-81879819D02*
X127323810Y-81879819D01*
X127323810Y-81879819D02*
X127276191Y-82356009D01*
X127276191Y-82356009D02*
X127323810Y-82308390D01*
X127323810Y-82308390D02*
X127419048Y-82260771D01*
X127419048Y-82260771D02*
X127657143Y-82260771D01*
X127657143Y-82260771D02*
X127752381Y-82308390D01*
X127752381Y-82308390D02*
X127800000Y-82356009D01*
X127800000Y-82356009D02*
X127847619Y-82451247D01*
X127847619Y-82451247D02*
X127847619Y-82689342D01*
X127847619Y-82689342D02*
X127800000Y-82784580D01*
X127800000Y-82784580D02*
X127752381Y-82832200D01*
X127752381Y-82832200D02*
X127657143Y-82879819D01*
X127657143Y-82879819D02*
X127419048Y-82879819D01*
X127419048Y-82879819D02*
X127323810Y-82832200D01*
X127323810Y-82832200D02*
X127276191Y-82784580D01*
X128847619Y-82879819D02*
X128514286Y-82403628D01*
X128276191Y-82879819D02*
X128276191Y-81879819D01*
X128276191Y-81879819D02*
X128657143Y-81879819D01*
X128657143Y-81879819D02*
X128752381Y-81927438D01*
X128752381Y-81927438D02*
X128800000Y-81975057D01*
X128800000Y-81975057D02*
X128847619Y-82070295D01*
X128847619Y-82070295D02*
X128847619Y-82213152D01*
X128847619Y-82213152D02*
X128800000Y-82308390D01*
X128800000Y-82308390D02*
X128752381Y-82356009D01*
X128752381Y-82356009D02*
X128657143Y-82403628D01*
X128657143Y-82403628D02*
X128276191Y-82403628D01*
X129180953Y-81879819D02*
X129800000Y-81879819D01*
X129800000Y-81879819D02*
X129466667Y-82260771D01*
X129466667Y-82260771D02*
X129609524Y-82260771D01*
X129609524Y-82260771D02*
X129704762Y-82308390D01*
X129704762Y-82308390D02*
X129752381Y-82356009D01*
X129752381Y-82356009D02*
X129800000Y-82451247D01*
X129800000Y-82451247D02*
X129800000Y-82689342D01*
X129800000Y-82689342D02*
X129752381Y-82784580D01*
X129752381Y-82784580D02*
X129704762Y-82832200D01*
X129704762Y-82832200D02*
X129609524Y-82879819D01*
X129609524Y-82879819D02*
X129323810Y-82879819D01*
X129323810Y-82879819D02*
X129228572Y-82832200D01*
X129228572Y-82832200D02*
X129180953Y-82784580D01*
D11*
X118296495Y-104004178D02*
X118286599Y-103962752D01*
X118286599Y-103962752D02*
X118249868Y-103918978D01*
X118249868Y-103918978D02*
X118198546Y-103887447D01*
X118198546Y-103887447D02*
X118144876Y-103882752D01*
X118144876Y-103882752D02*
X118103450Y-103892648D01*
X118103450Y-103892648D02*
X118032841Y-103927031D01*
X118032841Y-103927031D02*
X117989067Y-103963761D01*
X117989067Y-103963761D02*
X117942945Y-104027327D01*
X117942945Y-104027327D02*
X117926006Y-104066406D01*
X117926006Y-104066406D02*
X117921311Y-104120075D01*
X117921311Y-104120075D02*
X117943450Y-104176093D01*
X117943450Y-104176093D02*
X117967937Y-104205276D01*
X117967937Y-104205276D02*
X118019259Y-104236806D01*
X118019259Y-104236806D02*
X118046094Y-104239154D01*
X118046094Y-104239154D02*
X118148234Y-104153449D01*
X118148234Y-104153449D02*
X118099259Y-104095083D01*
X118543714Y-104269170D02*
X118494740Y-104210804D01*
X118494740Y-104210804D02*
X118455661Y-104193865D01*
X118455661Y-104193865D02*
X118428826Y-104191517D01*
X118428826Y-104191517D02*
X118360565Y-104199066D01*
X118360565Y-104199066D02*
X118289956Y-104233449D01*
X118289956Y-104233449D02*
X118173226Y-104331397D01*
X118173226Y-104331397D02*
X118156287Y-104370476D01*
X118156287Y-104370476D02*
X118153939Y-104397310D01*
X118153939Y-104397310D02*
X118163835Y-104438737D01*
X118163835Y-104438737D02*
X118212809Y-104497102D01*
X118212809Y-104497102D02*
X118251887Y-104514041D01*
X118251887Y-104514041D02*
X118278722Y-104516389D01*
X118278722Y-104516389D02*
X118320148Y-104506493D01*
X118320148Y-104506493D02*
X118393105Y-104445275D01*
X118393105Y-104445275D02*
X118410044Y-104406197D01*
X118410044Y-104406197D02*
X118412392Y-104379362D01*
X118412392Y-104379362D02*
X118402496Y-104337936D01*
X118402496Y-104337936D02*
X118353522Y-104279570D01*
X118353522Y-104279570D02*
X118314443Y-104262631D01*
X118314443Y-104262631D02*
X118287608Y-104260283D01*
X118287608Y-104260283D02*
X118246182Y-104270179D01*
X136571495Y-103904178D02*
X136561599Y-103862752D01*
X136561599Y-103862752D02*
X136524868Y-103818978D01*
X136524868Y-103818978D02*
X136473546Y-103787447D01*
X136473546Y-103787447D02*
X136419876Y-103782752D01*
X136419876Y-103782752D02*
X136378450Y-103792648D01*
X136378450Y-103792648D02*
X136307841Y-103827031D01*
X136307841Y-103827031D02*
X136264067Y-103863761D01*
X136264067Y-103863761D02*
X136217945Y-103927327D01*
X136217945Y-103927327D02*
X136201006Y-103966406D01*
X136201006Y-103966406D02*
X136196311Y-104020075D01*
X136196311Y-104020075D02*
X136218450Y-104076093D01*
X136218450Y-104076093D02*
X136242937Y-104105276D01*
X136242937Y-104105276D02*
X136294259Y-104136806D01*
X136294259Y-104136806D02*
X136321094Y-104139154D01*
X136321094Y-104139154D02*
X136423234Y-104053449D01*
X136423234Y-104053449D02*
X136374259Y-103995083D01*
X136536783Y-104455467D02*
X136389860Y-104280371D01*
X136463322Y-104367919D02*
X136769740Y-104110804D01*
X136769740Y-104110804D02*
X136701478Y-104118352D01*
X136701478Y-104118352D02*
X136647809Y-104113657D01*
X136647809Y-104113657D02*
X136608730Y-104096718D01*
X136928906Y-104300491D02*
X137088072Y-104490178D01*
X137088072Y-104490178D02*
X136885637Y-104485988D01*
X136885637Y-104485988D02*
X136922367Y-104529762D01*
X136922367Y-104529762D02*
X136932263Y-104571188D01*
X136932263Y-104571188D02*
X136929915Y-104598023D01*
X136929915Y-104598023D02*
X136912976Y-104637101D01*
X136912976Y-104637101D02*
X136840020Y-104698319D01*
X136840020Y-104698319D02*
X136798594Y-104708215D01*
X136798594Y-104708215D02*
X136771759Y-104705867D01*
X136771759Y-104705867D02*
X136732680Y-104688928D01*
X136732680Y-104688928D02*
X136659219Y-104601380D01*
X136659219Y-104601380D02*
X136649323Y-104559954D01*
X136649323Y-104559954D02*
X136651671Y-104533119D01*
X137396509Y-104828126D02*
X136782159Y-104896059D01*
X137283641Y-105345538D02*
X137161205Y-105199624D01*
X137161205Y-105199624D02*
X137467623Y-104942509D01*
X137529851Y-105312998D02*
X137615556Y-105415137D01*
X137491782Y-105593591D02*
X137369346Y-105447677D01*
X137369346Y-105447677D02*
X137675764Y-105190562D01*
X137675764Y-105190562D02*
X137798200Y-105336475D01*
X137601974Y-105724913D02*
X137908392Y-105467798D01*
X137908392Y-105467798D02*
X137969610Y-105540754D01*
X137969610Y-105540754D02*
X137991749Y-105596772D01*
X137991749Y-105596772D02*
X137987054Y-105650441D01*
X137987054Y-105650441D02*
X137970115Y-105689520D01*
X137970115Y-105689520D02*
X137923993Y-105753086D01*
X137923993Y-105753086D02*
X137880219Y-105789816D01*
X137880219Y-105789816D02*
X137809610Y-105824199D01*
X137809610Y-105824199D02*
X137768184Y-105834095D01*
X137768184Y-105834095D02*
X137714514Y-105829400D01*
X137714514Y-105829400D02*
X137663192Y-105797869D01*
X137663192Y-105797869D02*
X137601974Y-105724913D01*
X137768689Y-105982861D02*
X137964586Y-106216322D01*
X138057334Y-106237957D02*
X138079474Y-106293974D01*
X138079474Y-106293974D02*
X138140692Y-106366931D01*
X138140692Y-106366931D02*
X138179770Y-106383870D01*
X138179770Y-106383870D02*
X138206605Y-106386218D01*
X138206605Y-106386218D02*
X138248031Y-106376322D01*
X138248031Y-106376322D02*
X138277214Y-106351835D01*
X138277214Y-106351835D02*
X138294153Y-106312756D01*
X138294153Y-106312756D02*
X138296501Y-106285921D01*
X138296501Y-106285921D02*
X138286605Y-106244495D01*
X138286605Y-106244495D02*
X138252222Y-106173886D01*
X138252222Y-106173886D02*
X138242326Y-106132460D01*
X138242326Y-106132460D02*
X138244674Y-106105625D01*
X138244674Y-106105625D02*
X138261613Y-106066547D01*
X138261613Y-106066547D02*
X138290796Y-106042060D01*
X138290796Y-106042060D02*
X138332222Y-106032164D01*
X138332222Y-106032164D02*
X138359057Y-106034511D01*
X138359057Y-106034511D02*
X138398135Y-106051451D01*
X138398135Y-106051451D02*
X138459353Y-106124407D01*
X138459353Y-106124407D02*
X138481492Y-106180425D01*
X138299858Y-106556618D02*
X138606276Y-106299503D01*
X138422293Y-106702531D02*
X138728711Y-106445416D01*
X138728711Y-106445416D02*
X138789929Y-106518372D01*
X138789929Y-106518372D02*
X138812068Y-106574390D01*
X138812068Y-106574390D02*
X138807373Y-106628060D01*
X138807373Y-106628060D02*
X138790434Y-106667138D01*
X138790434Y-106667138D02*
X138744312Y-106730704D01*
X138744312Y-106730704D02*
X138700538Y-106767435D01*
X138700538Y-106767435D02*
X138629929Y-106801818D01*
X138629929Y-106801818D02*
X138588503Y-106811713D01*
X138588503Y-106811713D02*
X138534833Y-106807018D01*
X138534833Y-106807018D02*
X138483511Y-106775487D01*
X138483511Y-106775487D02*
X138422293Y-106702531D01*
X138839913Y-106874269D02*
X138925618Y-106976409D01*
X138801844Y-107154862D02*
X138679408Y-107008949D01*
X138679408Y-107008949D02*
X138985826Y-106751834D01*
X138985826Y-106751834D02*
X139108262Y-106897747D01*
X115139676Y-103862656D02*
X114918963Y-104221910D01*
X114918963Y-104221910D02*
X115311086Y-104066934D01*
X115266479Y-104576797D02*
X115239644Y-104574450D01*
X115239644Y-104574450D02*
X115188322Y-104542919D01*
X115188322Y-104542919D02*
X115163835Y-104513737D01*
X115163835Y-104513737D02*
X115141695Y-104457719D01*
X115141695Y-104457719D02*
X115146391Y-104404049D01*
X115146391Y-104404049D02*
X115163330Y-104364971D01*
X115163330Y-104364971D02*
X115209451Y-104301405D01*
X115209451Y-104301405D02*
X115253225Y-104264674D01*
X115253225Y-104264674D02*
X115323834Y-104230291D01*
X115323834Y-104230291D02*
X115365260Y-104220396D01*
X115365260Y-104220396D02*
X115418930Y-104225091D01*
X115418930Y-104225091D02*
X115470252Y-104256622D01*
X115470252Y-104256622D02*
X115494739Y-104285804D01*
X115494739Y-104285804D02*
X115516879Y-104341822D01*
X115516879Y-104341822D02*
X115514531Y-104368657D01*
X115523594Y-104883215D02*
X115496759Y-104880867D01*
X115496759Y-104880867D02*
X115445437Y-104849337D01*
X115445437Y-104849337D02*
X115420950Y-104820154D01*
X115420950Y-104820154D02*
X115398810Y-104764137D01*
X115398810Y-104764137D02*
X115403506Y-104710467D01*
X115403506Y-104710467D02*
X115420445Y-104671389D01*
X115420445Y-104671389D02*
X115466566Y-104607823D01*
X115466566Y-104607823D02*
X115510340Y-104571092D01*
X115510340Y-104571092D02*
X115580949Y-104536709D01*
X115580949Y-104536709D02*
X115622376Y-104526813D01*
X115622376Y-104526813D02*
X115676045Y-104531509D01*
X115676045Y-104531509D02*
X115727367Y-104563039D01*
X115727367Y-104563039D02*
X115751854Y-104592222D01*
X115751854Y-104592222D02*
X115773994Y-104648239D01*
X115773994Y-104648239D02*
X115771646Y-104675074D01*
X121046495Y-104054178D02*
X121036599Y-104012752D01*
X121036599Y-104012752D02*
X120999868Y-103968978D01*
X120999868Y-103968978D02*
X120948546Y-103937447D01*
X120948546Y-103937447D02*
X120894876Y-103932752D01*
X120894876Y-103932752D02*
X120853450Y-103942648D01*
X120853450Y-103942648D02*
X120782841Y-103977031D01*
X120782841Y-103977031D02*
X120739067Y-104013761D01*
X120739067Y-104013761D02*
X120692945Y-104077327D01*
X120692945Y-104077327D02*
X120676006Y-104116406D01*
X120676006Y-104116406D02*
X120671311Y-104170075D01*
X120671311Y-104170075D02*
X120693450Y-104226093D01*
X120693450Y-104226093D02*
X120717937Y-104255276D01*
X120717937Y-104255276D02*
X120769259Y-104286806D01*
X120769259Y-104286806D02*
X120796094Y-104289154D01*
X120796094Y-104289154D02*
X120898234Y-104203449D01*
X120898234Y-104203449D02*
X120849259Y-104145083D01*
X121088930Y-104341814D02*
X121079035Y-104300388D01*
X121079035Y-104300388D02*
X121081382Y-104273553D01*
X121081382Y-104273553D02*
X121098321Y-104234474D01*
X121098321Y-104234474D02*
X121112913Y-104222231D01*
X121112913Y-104222231D02*
X121154339Y-104212335D01*
X121154339Y-104212335D02*
X121181174Y-104214683D01*
X121181174Y-104214683D02*
X121220252Y-104231622D01*
X121220252Y-104231622D02*
X121269227Y-104289987D01*
X121269227Y-104289987D02*
X121279123Y-104331413D01*
X121279123Y-104331413D02*
X121276775Y-104358248D01*
X121276775Y-104358248D02*
X121259836Y-104397327D01*
X121259836Y-104397327D02*
X121245244Y-104409570D01*
X121245244Y-104409570D02*
X121203818Y-104419466D01*
X121203818Y-104419466D02*
X121176983Y-104417118D01*
X121176983Y-104417118D02*
X121137905Y-104400179D01*
X121137905Y-104400179D02*
X121088930Y-104341814D01*
X121088930Y-104341814D02*
X121049852Y-104324875D01*
X121049852Y-104324875D02*
X121023017Y-104322527D01*
X121023017Y-104322527D02*
X120981591Y-104332423D01*
X120981591Y-104332423D02*
X120923226Y-104381397D01*
X120923226Y-104381397D02*
X120906287Y-104420476D01*
X120906287Y-104420476D02*
X120903939Y-104447310D01*
X120903939Y-104447310D02*
X120913835Y-104488737D01*
X120913835Y-104488737D02*
X120962809Y-104547102D01*
X120962809Y-104547102D02*
X121001887Y-104564041D01*
X121001887Y-104564041D02*
X121028722Y-104566389D01*
X121028722Y-104566389D02*
X121070148Y-104556493D01*
X121070148Y-104556493D02*
X121128514Y-104507519D01*
X121128514Y-104507519D02*
X121145453Y-104468440D01*
X121145453Y-104468440D02*
X121147801Y-104441605D01*
X121147801Y-104441605D02*
X121137905Y-104400179D01*
X134046495Y-103954178D02*
X134036599Y-103912752D01*
X134036599Y-103912752D02*
X133999868Y-103868978D01*
X133999868Y-103868978D02*
X133948546Y-103837447D01*
X133948546Y-103837447D02*
X133894876Y-103832752D01*
X133894876Y-103832752D02*
X133853450Y-103842648D01*
X133853450Y-103842648D02*
X133782841Y-103877031D01*
X133782841Y-103877031D02*
X133739067Y-103913761D01*
X133739067Y-103913761D02*
X133692945Y-103977327D01*
X133692945Y-103977327D02*
X133676006Y-104016406D01*
X133676006Y-104016406D02*
X133671311Y-104070075D01*
X133671311Y-104070075D02*
X133693450Y-104126093D01*
X133693450Y-104126093D02*
X133717937Y-104155276D01*
X133717937Y-104155276D02*
X133769259Y-104186806D01*
X133769259Y-104186806D02*
X133796094Y-104189154D01*
X133796094Y-104189154D02*
X133898234Y-104103449D01*
X133898234Y-104103449D02*
X133849259Y-104045083D01*
X133877104Y-104344963D02*
X134183522Y-104087848D01*
X134183522Y-104087848D02*
X134024027Y-104520059D01*
X134024027Y-104520059D02*
X134330445Y-104262944D01*
X134146463Y-104665972D02*
X134452881Y-104408857D01*
X134452881Y-104408857D02*
X134514098Y-104481814D01*
X134514098Y-104481814D02*
X134536238Y-104537831D01*
X134536238Y-104537831D02*
X134531542Y-104591501D01*
X134531542Y-104591501D02*
X134514603Y-104630579D01*
X134514603Y-104630579D02*
X134468482Y-104694145D01*
X134468482Y-104694145D02*
X134424708Y-104730876D01*
X134424708Y-104730876D02*
X134354099Y-104765259D01*
X134354099Y-104765259D02*
X134312672Y-104775155D01*
X134312672Y-104775155D02*
X134259003Y-104770459D01*
X134259003Y-104770459D02*
X134207681Y-104738929D01*
X134207681Y-104738929D02*
X134146463Y-104665972D01*
X131421495Y-104029178D02*
X131411599Y-103987752D01*
X131411599Y-103987752D02*
X131374868Y-103943978D01*
X131374868Y-103943978D02*
X131323546Y-103912447D01*
X131323546Y-103912447D02*
X131269876Y-103907752D01*
X131269876Y-103907752D02*
X131228450Y-103917648D01*
X131228450Y-103917648D02*
X131157841Y-103952031D01*
X131157841Y-103952031D02*
X131114067Y-103988761D01*
X131114067Y-103988761D02*
X131067945Y-104052327D01*
X131067945Y-104052327D02*
X131051006Y-104091406D01*
X131051006Y-104091406D02*
X131046311Y-104145075D01*
X131046311Y-104145075D02*
X131068450Y-104201093D01*
X131068450Y-104201093D02*
X131092937Y-104230276D01*
X131092937Y-104230276D02*
X131144259Y-104261806D01*
X131144259Y-104261806D02*
X131171094Y-104264154D01*
X131171094Y-104264154D02*
X131273234Y-104178449D01*
X131273234Y-104178449D02*
X131224259Y-104120083D01*
X131386783Y-104580467D02*
X131239860Y-104405371D01*
X131313322Y-104492919D02*
X131619740Y-104235804D01*
X131619740Y-104235804D02*
X131551478Y-104243352D01*
X131551478Y-104243352D02*
X131497809Y-104238657D01*
X131497809Y-104238657D02*
X131458730Y-104221718D01*
X131761967Y-104464570D02*
X131788802Y-104466917D01*
X131788802Y-104466917D02*
X131827880Y-104483856D01*
X131827880Y-104483856D02*
X131889098Y-104556813D01*
X131889098Y-104556813D02*
X131898994Y-104598239D01*
X131898994Y-104598239D02*
X131896646Y-104625074D01*
X131896646Y-104625074D02*
X131879707Y-104664153D01*
X131879707Y-104664153D02*
X131850524Y-104688640D01*
X131850524Y-104688640D02*
X131794507Y-104710779D01*
X131794507Y-104710779D02*
X131472488Y-104682606D01*
X131472488Y-104682606D02*
X131631654Y-104872293D01*
X132246509Y-104953126D02*
X131632159Y-105021059D01*
X132011205Y-105324624D02*
X132317623Y-105067509D01*
X132317623Y-105067509D02*
X132184458Y-105353302D01*
X132184458Y-105353302D02*
X132489033Y-105271788D01*
X132489033Y-105271788D02*
X132182615Y-105528903D01*
X132660443Y-105476067D02*
X132709417Y-105534432D01*
X132709417Y-105534432D02*
X132719313Y-105575858D01*
X132719313Y-105575858D02*
X132714618Y-105629528D01*
X132714618Y-105629528D02*
X132668496Y-105693093D01*
X132668496Y-105693093D02*
X132566357Y-105778798D01*
X132566357Y-105778798D02*
X132495748Y-105813181D01*
X132495748Y-105813181D02*
X132442078Y-105808486D01*
X132442078Y-105808486D02*
X132403000Y-105791547D01*
X132403000Y-105791547D02*
X132354025Y-105733182D01*
X132354025Y-105733182D02*
X132344130Y-105691755D01*
X132344130Y-105691755D02*
X132348825Y-105638086D01*
X132348825Y-105638086D02*
X132394947Y-105574520D01*
X132394947Y-105574520D02*
X132497086Y-105488815D01*
X132497086Y-105488815D02*
X132567695Y-105454432D01*
X132567695Y-105454432D02*
X132621365Y-105459127D01*
X132621365Y-105459127D02*
X132660443Y-105476067D01*
X132576758Y-105968991D02*
X132598897Y-106025008D01*
X132598897Y-106025008D02*
X132660115Y-106097965D01*
X132660115Y-106097965D02*
X132699193Y-106114904D01*
X132699193Y-106114904D02*
X132726028Y-106117252D01*
X132726028Y-106117252D02*
X132767455Y-106107356D01*
X132767455Y-106107356D02*
X132796637Y-106082869D01*
X132796637Y-106082869D02*
X132813576Y-106043790D01*
X132813576Y-106043790D02*
X132815924Y-106016955D01*
X132815924Y-106016955D02*
X132806028Y-105975529D01*
X132806028Y-105975529D02*
X132771645Y-105904920D01*
X132771645Y-105904920D02*
X132761749Y-105863494D01*
X132761749Y-105863494D02*
X132764097Y-105836659D01*
X132764097Y-105836659D02*
X132781036Y-105797581D01*
X132781036Y-105797581D02*
X132810219Y-105773094D01*
X132810219Y-105773094D02*
X132851645Y-105763198D01*
X132851645Y-105763198D02*
X132878480Y-105765546D01*
X132878480Y-105765546D02*
X132917558Y-105782485D01*
X132917558Y-105782485D02*
X132978776Y-105855441D01*
X132978776Y-105855441D02*
X133000916Y-105911459D01*
X132819281Y-106287652D02*
X133125699Y-106030537D01*
X126071495Y-104054178D02*
X126061599Y-104012752D01*
X126061599Y-104012752D02*
X126024868Y-103968978D01*
X126024868Y-103968978D02*
X125973546Y-103937447D01*
X125973546Y-103937447D02*
X125919876Y-103932752D01*
X125919876Y-103932752D02*
X125878450Y-103942648D01*
X125878450Y-103942648D02*
X125807841Y-103977031D01*
X125807841Y-103977031D02*
X125764067Y-104013761D01*
X125764067Y-104013761D02*
X125717945Y-104077327D01*
X125717945Y-104077327D02*
X125701006Y-104116406D01*
X125701006Y-104116406D02*
X125696311Y-104170075D01*
X125696311Y-104170075D02*
X125718450Y-104226093D01*
X125718450Y-104226093D02*
X125742937Y-104255276D01*
X125742937Y-104255276D02*
X125794259Y-104286806D01*
X125794259Y-104286806D02*
X125821094Y-104289154D01*
X125821094Y-104289154D02*
X125923234Y-104203449D01*
X125923234Y-104203449D02*
X125874259Y-104145083D01*
X126036783Y-104605467D02*
X125889860Y-104430371D01*
X125963322Y-104517919D02*
X126269740Y-104260804D01*
X126269740Y-104260804D02*
X126201478Y-104268352D01*
X126201478Y-104268352D02*
X126147809Y-104263657D01*
X126147809Y-104263657D02*
X126108730Y-104246718D01*
X126502367Y-104538039D02*
X126526854Y-104567222D01*
X126526854Y-104567222D02*
X126536750Y-104608648D01*
X126536750Y-104608648D02*
X126534402Y-104635483D01*
X126534402Y-104635483D02*
X126517463Y-104674561D01*
X126517463Y-104674561D02*
X126471342Y-104738127D01*
X126471342Y-104738127D02*
X126398385Y-104799345D01*
X126398385Y-104799345D02*
X126327776Y-104833728D01*
X126327776Y-104833728D02*
X126286350Y-104843624D01*
X126286350Y-104843624D02*
X126259515Y-104841276D01*
X126259515Y-104841276D02*
X126220437Y-104824337D01*
X126220437Y-104824337D02*
X126195949Y-104795154D01*
X126195949Y-104795154D02*
X126186054Y-104753728D01*
X126186054Y-104753728D02*
X126188401Y-104726893D01*
X126188401Y-104726893D02*
X126205340Y-104687815D01*
X126205340Y-104687815D02*
X126251462Y-104624249D01*
X126251462Y-104624249D02*
X126324419Y-104563031D01*
X126324419Y-104563031D02*
X126395028Y-104528648D01*
X126395028Y-104528648D02*
X126436454Y-104518752D01*
X126436454Y-104518752D02*
X126463289Y-104521100D01*
X126463289Y-104521100D02*
X126502367Y-104538039D01*
X126896509Y-104978126D02*
X126282159Y-105046059D01*
X126663553Y-105322790D02*
X126685692Y-105378807D01*
X126685692Y-105378807D02*
X126746910Y-105451764D01*
X126746910Y-105451764D02*
X126785989Y-105468703D01*
X126785989Y-105468703D02*
X126812824Y-105471051D01*
X126812824Y-105471051D02*
X126854250Y-105461155D01*
X126854250Y-105461155D02*
X126883432Y-105436668D01*
X126883432Y-105436668D02*
X126900372Y-105397589D01*
X126900372Y-105397589D02*
X126902719Y-105370754D01*
X126902719Y-105370754D02*
X126892823Y-105329328D01*
X126892823Y-105329328D02*
X126858440Y-105258719D01*
X126858440Y-105258719D02*
X126848545Y-105217293D01*
X126848545Y-105217293D02*
X126850892Y-105190458D01*
X126850892Y-105190458D02*
X126867831Y-105151380D01*
X126867831Y-105151380D02*
X126897014Y-105126892D01*
X126897014Y-105126892D02*
X126938440Y-105116997D01*
X126938440Y-105116997D02*
X126965275Y-105119344D01*
X126965275Y-105119344D02*
X127004354Y-105136283D01*
X127004354Y-105136283D02*
X127065572Y-105209240D01*
X127065572Y-105209240D02*
X127087711Y-105265258D01*
X127082182Y-105792059D02*
X127055347Y-105789712D01*
X127055347Y-105789712D02*
X127004025Y-105758181D01*
X127004025Y-105758181D02*
X126979538Y-105728999D01*
X126979538Y-105728999D02*
X126957398Y-105672981D01*
X126957398Y-105672981D02*
X126962094Y-105619311D01*
X126962094Y-105619311D02*
X126979033Y-105580233D01*
X126979033Y-105580233D02*
X127025155Y-105516667D01*
X127025155Y-105516667D02*
X127068929Y-105479936D01*
X127068929Y-105479936D02*
X127139538Y-105445553D01*
X127139538Y-105445553D02*
X127180964Y-105435658D01*
X127180964Y-105435658D02*
X127234634Y-105440353D01*
X127234634Y-105440353D02*
X127285956Y-105471883D01*
X127285956Y-105471883D02*
X127310443Y-105501066D01*
X127310443Y-105501066D02*
X127332582Y-105557084D01*
X127332582Y-105557084D02*
X127330234Y-105583919D01*
X127163191Y-105947868D02*
X127469609Y-105690753D01*
X127310114Y-106122964D02*
X127375018Y-105844719D01*
X127616532Y-105865849D02*
X127294513Y-105837676D01*
X123571495Y-104054178D02*
X123561599Y-104012752D01*
X123561599Y-104012752D02*
X123524868Y-103968978D01*
X123524868Y-103968978D02*
X123473546Y-103937447D01*
X123473546Y-103937447D02*
X123419876Y-103932752D01*
X123419876Y-103932752D02*
X123378450Y-103942648D01*
X123378450Y-103942648D02*
X123307841Y-103977031D01*
X123307841Y-103977031D02*
X123264067Y-104013761D01*
X123264067Y-104013761D02*
X123217945Y-104077327D01*
X123217945Y-104077327D02*
X123201006Y-104116406D01*
X123201006Y-104116406D02*
X123196311Y-104170075D01*
X123196311Y-104170075D02*
X123218450Y-104226093D01*
X123218450Y-104226093D02*
X123242937Y-104255276D01*
X123242937Y-104255276D02*
X123294259Y-104286806D01*
X123294259Y-104286806D02*
X123321094Y-104289154D01*
X123321094Y-104289154D02*
X123423234Y-104203449D01*
X123423234Y-104203449D02*
X123374259Y-104145083D01*
X123414347Y-104459554D02*
X123463322Y-104517919D01*
X123463322Y-104517919D02*
X123502400Y-104534858D01*
X123502400Y-104534858D02*
X123529235Y-104537206D01*
X123529235Y-104537206D02*
X123597496Y-104529658D01*
X123597496Y-104529658D02*
X123668105Y-104495275D01*
X123668105Y-104495275D02*
X123784836Y-104397327D01*
X123784836Y-104397327D02*
X123801775Y-104358248D01*
X123801775Y-104358248D02*
X123804123Y-104331413D01*
X123804123Y-104331413D02*
X123794227Y-104289987D01*
X123794227Y-104289987D02*
X123745252Y-104231622D01*
X123745252Y-104231622D02*
X123706174Y-104214683D01*
X123706174Y-104214683D02*
X123679339Y-104212335D01*
X123679339Y-104212335D02*
X123637913Y-104222231D01*
X123637913Y-104222231D02*
X123564956Y-104283449D01*
X123564956Y-104283449D02*
X123548017Y-104322527D01*
X123548017Y-104322527D02*
X123545669Y-104349362D01*
X123545669Y-104349362D02*
X123555565Y-104390788D01*
X123555565Y-104390788D02*
X123604539Y-104449153D01*
X123604539Y-104449153D02*
X123643618Y-104466092D01*
X123643618Y-104466092D02*
X123670453Y-104468440D01*
X123670453Y-104468440D02*
X123711879Y-104458544D01*
X124151638Y-104686300D02*
X123537288Y-104754233D01*
X124092440Y-105208407D02*
X124065605Y-105206059D01*
X124065605Y-105206059D02*
X124014283Y-105174529D01*
X124014283Y-105174529D02*
X123989795Y-105145346D01*
X123989795Y-105145346D02*
X123967656Y-105089329D01*
X123967656Y-105089329D02*
X123972352Y-105035659D01*
X123972352Y-105035659D02*
X123989291Y-104996580D01*
X123989291Y-104996580D02*
X124035412Y-104933015D01*
X124035412Y-104933015D02*
X124079186Y-104896284D01*
X124079186Y-104896284D02*
X124149795Y-104861901D01*
X124149795Y-104861901D02*
X124191221Y-104852005D01*
X124191221Y-104852005D02*
X124244891Y-104856701D01*
X124244891Y-104856701D02*
X124296213Y-104888231D01*
X124296213Y-104888231D02*
X124320700Y-104917414D01*
X124320700Y-104917414D02*
X124342840Y-104973431D01*
X124342840Y-104973431D02*
X124340492Y-105000266D01*
X124175797Y-105337381D02*
X124197936Y-105393399D01*
X124197936Y-105393399D02*
X124259154Y-105466355D01*
X124259154Y-105466355D02*
X124298233Y-105483294D01*
X124298233Y-105483294D02*
X124325067Y-105485642D01*
X124325067Y-105485642D02*
X124366494Y-105475746D01*
X124366494Y-105475746D02*
X124395676Y-105451259D01*
X124395676Y-105451259D02*
X124412615Y-105412181D01*
X124412615Y-105412181D02*
X124414963Y-105385346D01*
X124414963Y-105385346D02*
X124405067Y-105343920D01*
X124405067Y-105343920D02*
X124370684Y-105273311D01*
X124370684Y-105273311D02*
X124360788Y-105231884D01*
X124360788Y-105231884D02*
X124363136Y-105205050D01*
X124363136Y-105205050D02*
X124380075Y-105165971D01*
X124380075Y-105165971D02*
X124409258Y-105141484D01*
X124409258Y-105141484D02*
X124450684Y-105131588D01*
X124450684Y-105131588D02*
X124477519Y-105133936D01*
X124477519Y-105133936D02*
X124516598Y-105150875D01*
X124516598Y-105150875D02*
X124577815Y-105223832D01*
X124577815Y-105223832D02*
X124599955Y-105279849D01*
X124664530Y-105623502D02*
X124686669Y-105679520D01*
X124686669Y-105679520D02*
X124684321Y-105706355D01*
X124684321Y-105706355D02*
X124667382Y-105745433D01*
X124667382Y-105745433D02*
X124623608Y-105782164D01*
X124623608Y-105782164D02*
X124582182Y-105792060D01*
X124582182Y-105792060D02*
X124555347Y-105789712D01*
X124555347Y-105789712D02*
X124516269Y-105772773D01*
X124516269Y-105772773D02*
X124418320Y-105656042D01*
X124418320Y-105656042D02*
X124724738Y-105398927D01*
X124724738Y-105398927D02*
X124810443Y-105501066D01*
X124810443Y-105501066D02*
X124820339Y-105542493D01*
X124820339Y-105542493D02*
X124817991Y-105569328D01*
X124817991Y-105569328D02*
X124801052Y-105608406D01*
X124801052Y-105608406D02*
X124771869Y-105632893D01*
X124771869Y-105632893D02*
X124730443Y-105642789D01*
X124730443Y-105642789D02*
X124703608Y-105640441D01*
X124703608Y-105640441D02*
X124664530Y-105623502D01*
X124664530Y-105623502D02*
X124578825Y-105521363D01*
X128621495Y-104029178D02*
X128611599Y-103987752D01*
X128611599Y-103987752D02*
X128574868Y-103943978D01*
X128574868Y-103943978D02*
X128523546Y-103912447D01*
X128523546Y-103912447D02*
X128469876Y-103907752D01*
X128469876Y-103907752D02*
X128428450Y-103917648D01*
X128428450Y-103917648D02*
X128357841Y-103952031D01*
X128357841Y-103952031D02*
X128314067Y-103988761D01*
X128314067Y-103988761D02*
X128267945Y-104052327D01*
X128267945Y-104052327D02*
X128251006Y-104091406D01*
X128251006Y-104091406D02*
X128246311Y-104145075D01*
X128246311Y-104145075D02*
X128268450Y-104201093D01*
X128268450Y-104201093D02*
X128292937Y-104230276D01*
X128292937Y-104230276D02*
X128344259Y-104261806D01*
X128344259Y-104261806D02*
X128371094Y-104264154D01*
X128371094Y-104264154D02*
X128473234Y-104178449D01*
X128473234Y-104178449D02*
X128424259Y-104120083D01*
X128586783Y-104580467D02*
X128439860Y-104405371D01*
X128513322Y-104492919D02*
X128819740Y-104235804D01*
X128819740Y-104235804D02*
X128751478Y-104243352D01*
X128751478Y-104243352D02*
X128697809Y-104238657D01*
X128697809Y-104238657D02*
X128658730Y-104221718D01*
X128831654Y-104872293D02*
X128684732Y-104697198D01*
X128758193Y-104784745D02*
X129064611Y-104527630D01*
X129064611Y-104527630D02*
X128996350Y-104535179D01*
X128996350Y-104535179D02*
X128942680Y-104530483D01*
X128942680Y-104530483D02*
X128903601Y-104513544D01*
X129446509Y-104953126D02*
X128832159Y-105021059D01*
X129211205Y-105324624D02*
X129517623Y-105067509D01*
X129517623Y-105067509D02*
X129384458Y-105353302D01*
X129384458Y-105353302D02*
X129689033Y-105271788D01*
X129689033Y-105271788D02*
X129382615Y-105528903D01*
X129505051Y-105674816D02*
X129811469Y-105417701D01*
X129629834Y-105793894D02*
X129651974Y-105849912D01*
X129651974Y-105849912D02*
X129713192Y-105922869D01*
X129713192Y-105922869D02*
X129752270Y-105939808D01*
X129752270Y-105939808D02*
X129779105Y-105942155D01*
X129779105Y-105942155D02*
X129820531Y-105932260D01*
X129820531Y-105932260D02*
X129849714Y-105907772D01*
X129849714Y-105907772D02*
X129866653Y-105868694D01*
X129866653Y-105868694D02*
X129869001Y-105841859D01*
X129869001Y-105841859D02*
X129859105Y-105800433D01*
X129859105Y-105800433D02*
X129824722Y-105729824D01*
X129824722Y-105729824D02*
X129814826Y-105688398D01*
X129814826Y-105688398D02*
X129817174Y-105661563D01*
X129817174Y-105661563D02*
X129834113Y-105622484D01*
X129834113Y-105622484D02*
X129863296Y-105597997D01*
X129863296Y-105597997D02*
X129904722Y-105588101D01*
X129904722Y-105588101D02*
X129931557Y-105590449D01*
X129931557Y-105590449D02*
X129970635Y-105607388D01*
X129970635Y-105607388D02*
X130031853Y-105680345D01*
X130031853Y-105680345D02*
X130053992Y-105736362D01*
X130227750Y-105913806D02*
X130276724Y-105972171D01*
X130276724Y-105972171D02*
X130286620Y-106013597D01*
X130286620Y-106013597D02*
X130281925Y-106067267D01*
X130281925Y-106067267D02*
X130235803Y-106130833D01*
X130235803Y-106130833D02*
X130133664Y-106216538D01*
X130133664Y-106216538D02*
X130063055Y-106250921D01*
X130063055Y-106250921D02*
X130009385Y-106246225D01*
X130009385Y-106246225D02*
X129970306Y-106229286D01*
X129970306Y-106229286D02*
X129921332Y-106170921D01*
X129921332Y-106170921D02*
X129911436Y-106129495D01*
X129911436Y-106129495D02*
X129916132Y-106075825D01*
X129916132Y-106075825D02*
X129962254Y-106012259D01*
X129962254Y-106012259D02*
X130064393Y-105926554D01*
X130064393Y-105926554D02*
X130135002Y-105892171D01*
X130135002Y-105892171D02*
X130188672Y-105896867D01*
X130188672Y-105896867D02*
X130227750Y-105913806D01*
D10*
X116591666Y-95129819D02*
X116591666Y-95844104D01*
X116591666Y-95844104D02*
X116544047Y-95986961D01*
X116544047Y-95986961D02*
X116448809Y-96082200D01*
X116448809Y-96082200D02*
X116305952Y-96129819D01*
X116305952Y-96129819D02*
X116210714Y-96129819D01*
X117020238Y-95225057D02*
X117067857Y-95177438D01*
X117067857Y-95177438D02*
X117163095Y-95129819D01*
X117163095Y-95129819D02*
X117401190Y-95129819D01*
X117401190Y-95129819D02*
X117496428Y-95177438D01*
X117496428Y-95177438D02*
X117544047Y-95225057D01*
X117544047Y-95225057D02*
X117591666Y-95320295D01*
X117591666Y-95320295D02*
X117591666Y-95415533D01*
X117591666Y-95415533D02*
X117544047Y-95558390D01*
X117544047Y-95558390D02*
X116972619Y-96129819D01*
X116972619Y-96129819D02*
X117591666Y-96129819D01*
D11*
%TO.C,PAJ7025R3*%
X125925000Y-83100000D02*
X121400000Y-83100000D01*
X125925000Y-83100000D02*
X130450000Y-83100000D01*
X125925000Y-84300000D02*
X121400000Y-84300000D01*
X125925000Y-84300000D02*
X130450000Y-84300000D01*
X120800000Y-83700000D02*
G75*
G02*
X121400000Y-83100000I600000J0D01*
G01*
X121400000Y-84300000D02*
G75*
G02*
X120800000Y-83700000I0J600000D01*
G01*
X130450000Y-83100000D02*
G75*
G02*
X131050000Y-83700000I0J-600000D01*
G01*
X131050000Y-83700000D02*
G75*
G02*
X130450000Y-84300000I-600000J0D01*
G01*
D12*
%TO.C,J2*%
X114555000Y-97155000D02*
X114555000Y-103155000D01*
X114555000Y-103155000D02*
X137615000Y-103155000D01*
X115125000Y-97155000D02*
X115125000Y-97775000D01*
X115125000Y-97775000D02*
X116725000Y-97775000D01*
X115925000Y-102155000D02*
X116175000Y-101725000D01*
X115925000Y-102155000D02*
X121005000Y-102155000D01*
X115925000Y-103155000D02*
X115925000Y-102155000D01*
X116175000Y-101725000D02*
X121005000Y-101725000D01*
X116175000Y-103155000D02*
X116175000Y-102155000D01*
X116725000Y-97775000D02*
X116725000Y-97155000D01*
X117665000Y-97155000D02*
X117665000Y-97775000D01*
X117665000Y-97775000D02*
X119265000Y-97775000D01*
X119265000Y-97775000D02*
X119265000Y-97155000D01*
X120205000Y-97155000D02*
X120205000Y-97775000D01*
X120205000Y-97775000D02*
X121805000Y-97775000D01*
X121005000Y-101725000D02*
X121005000Y-102155000D01*
X121005000Y-102155000D02*
X121005000Y-103155000D01*
X121805000Y-97775000D02*
X121805000Y-97155000D01*
X122745000Y-97155000D02*
X122745000Y-97775000D01*
X122745000Y-97775000D02*
X124345000Y-97775000D01*
X124345000Y-97775000D02*
X124345000Y-97155000D01*
X125285000Y-97155000D02*
X125285000Y-97775000D01*
X125285000Y-97775000D02*
X126885000Y-97775000D01*
X126885000Y-97775000D02*
X126885000Y-97155000D01*
X127825000Y-97155000D02*
X127825000Y-97775000D01*
X127825000Y-97775000D02*
X129425000Y-97775000D01*
X129425000Y-97775000D02*
X129425000Y-97155000D01*
X130365000Y-97155000D02*
X130365000Y-97775000D01*
X130365000Y-97775000D02*
X131965000Y-97775000D01*
X131165000Y-101725000D02*
X131165000Y-102155000D01*
X131165000Y-102155000D02*
X131165000Y-103155000D01*
X131965000Y-97775000D02*
X131965000Y-97155000D01*
X132905000Y-97155000D02*
X132905000Y-97775000D01*
X132905000Y-97775000D02*
X134505000Y-97775000D01*
X134505000Y-97775000D02*
X134505000Y-97155000D01*
X135445000Y-97155000D02*
X135445000Y-97775000D01*
X135445000Y-97775000D02*
X137045000Y-97775000D01*
X135995000Y-101725000D02*
X131165000Y-101725000D01*
X135995000Y-103155000D02*
X135995000Y-102155000D01*
X136245000Y-102155000D02*
X131165000Y-102155000D01*
X136245000Y-102155000D02*
X135995000Y-101725000D01*
X136245000Y-103155000D02*
X136245000Y-102155000D01*
X137045000Y-97775000D02*
X137045000Y-97155000D01*
X137615000Y-97155000D02*
X114555000Y-97155000D01*
X137615000Y-103155000D02*
X137615000Y-97155000D01*
D13*
%TO.C,G\u002A\u002A\u002A*%
G36*
X114627662Y-84411528D02*
G01*
X114640791Y-84436826D01*
X114623259Y-84492179D01*
X114588990Y-84561046D01*
X114559254Y-84570956D01*
X114532737Y-84524704D01*
X114508326Y-84461885D01*
X114498378Y-84439637D01*
X114511530Y-84415696D01*
X114568960Y-84407112D01*
X114627662Y-84411528D01*
G37*
G36*
X114685442Y-84002862D02*
G01*
X114694383Y-84065723D01*
X114694385Y-84066844D01*
X114685688Y-84130085D01*
X114664735Y-84156908D01*
X114664361Y-84156915D01*
X114643281Y-84130825D01*
X114634340Y-84067964D01*
X114634338Y-84066844D01*
X114643034Y-84003602D01*
X114663988Y-83976780D01*
X114664361Y-83976773D01*
X114685442Y-84002862D01*
G37*
G36*
X114805537Y-84423193D02*
G01*
X114814477Y-84486054D01*
X114814480Y-84487175D01*
X114805783Y-84550416D01*
X114784829Y-84577239D01*
X114784456Y-84577246D01*
X114763375Y-84551156D01*
X114754435Y-84488295D01*
X114754432Y-84487175D01*
X114763129Y-84423933D01*
X114784082Y-84397111D01*
X114784456Y-84397104D01*
X114805537Y-84423193D01*
G37*
G36*
X115946435Y-84002862D02*
G01*
X115955376Y-84065723D01*
X115955378Y-84066844D01*
X115946681Y-84130085D01*
X115925728Y-84156908D01*
X115925354Y-84156915D01*
X115904274Y-84130825D01*
X115895333Y-84067964D01*
X115895331Y-84066844D01*
X115904027Y-84003602D01*
X115924981Y-83976780D01*
X115925354Y-83976773D01*
X115946435Y-84002862D01*
G37*
G36*
X116336742Y-84002862D02*
G01*
X116345683Y-84065723D01*
X116345685Y-84066844D01*
X116336989Y-84130085D01*
X116316035Y-84156908D01*
X116315662Y-84156915D01*
X116294581Y-84130825D01*
X116285640Y-84067964D01*
X116285638Y-84066844D01*
X116294334Y-84003602D01*
X116315288Y-83976780D01*
X116315662Y-83976773D01*
X116336742Y-84002862D01*
G37*
G36*
X114328675Y-84422183D02*
G01*
X114334101Y-84455659D01*
X114357895Y-84518466D01*
X114386643Y-84544817D01*
X114415689Y-84566574D01*
X114394172Y-84575045D01*
X114356619Y-84576333D01*
X114297989Y-84568710D01*
X114276397Y-84531608D01*
X114274054Y-84487175D01*
X114282751Y-84423933D01*
X114303704Y-84397111D01*
X114304078Y-84397104D01*
X114328675Y-84422183D01*
G37*
G36*
X115774585Y-83984264D02*
G01*
X115787711Y-83993970D01*
X115782742Y-83996657D01*
X115753722Y-84035046D01*
X115745212Y-84084357D01*
X115734613Y-84139573D01*
X115715189Y-84156915D01*
X115689951Y-84132054D01*
X115685165Y-84102872D01*
X115666156Y-84036273D01*
X115649137Y-84012801D01*
X115637290Y-83988773D01*
X115672411Y-83979420D01*
X115716690Y-83979143D01*
X115774585Y-83984264D01*
G37*
G36*
X114159841Y-84376516D02*
G01*
X114183054Y-84411627D01*
X114183983Y-84427127D01*
X114162753Y-84477306D01*
X114123936Y-84487175D01*
X114075034Y-84505948D01*
X114063889Y-84532210D01*
X114047677Y-84572165D01*
X114033865Y-84577246D01*
X114014020Y-84550852D01*
X114004101Y-84485953D01*
X114003841Y-84472163D01*
X114008862Y-84401562D01*
X114034331Y-84372604D01*
X114093912Y-84367080D01*
X114159841Y-84376516D01*
G37*
G36*
X116400947Y-84421964D02*
G01*
X116405733Y-84451146D01*
X116385428Y-84519360D01*
X116337082Y-84565008D01*
X116279549Y-84575602D01*
X116245606Y-84557230D01*
X116228299Y-84513683D01*
X116227276Y-84454183D01*
X116240753Y-84407301D01*
X116255614Y-84397104D01*
X116280008Y-84422250D01*
X116285638Y-84457151D01*
X116298211Y-84505938D01*
X116315662Y-84517198D01*
X116340055Y-84492052D01*
X116345685Y-84457151D01*
X116358258Y-84408364D01*
X116375709Y-84397104D01*
X116400947Y-84421964D01*
G37*
G36*
X114087258Y-83972277D02*
G01*
X114099330Y-84014302D01*
X114121075Y-84067153D01*
X114152555Y-84067434D01*
X114177045Y-84016478D01*
X114178565Y-84007986D01*
X114200144Y-83954876D01*
X114227823Y-83954699D01*
X114243753Y-84005325D01*
X114244030Y-84015803D01*
X114224333Y-84094344D01*
X114175708Y-84146768D01*
X114138948Y-84156915D01*
X114090488Y-84137659D01*
X114069893Y-84120886D01*
X114043829Y-84071872D01*
X114034549Y-84009902D01*
X114043234Y-83960402D01*
X114061800Y-83946749D01*
X114087258Y-83972277D01*
G37*
G36*
X115344559Y-84410068D02*
G01*
X115354905Y-84427127D01*
X115330587Y-84453764D01*
X115309870Y-84457151D01*
X115269893Y-84471870D01*
X115264834Y-84484364D01*
X115288765Y-84499749D01*
X115325328Y-84495757D01*
X115368641Y-84493264D01*
X115368046Y-84526213D01*
X115367151Y-84528592D01*
X115326412Y-84567763D01*
X115266668Y-84575335D01*
X115219869Y-84547332D01*
X115219633Y-84546953D01*
X115211202Y-84487050D01*
X115239459Y-84427972D01*
X115290073Y-84397515D01*
X115296881Y-84397104D01*
X115344559Y-84410068D01*
G37*
G36*
X115385915Y-78573812D02*
G01*
X115399941Y-78632565D01*
X115383439Y-78694414D01*
X115332253Y-78717235D01*
X115268921Y-78706330D01*
X115246476Y-78679706D01*
X115242238Y-78632565D01*
X115309870Y-78632565D01*
X115312250Y-78660231D01*
X115323110Y-78662588D01*
X115353683Y-78640794D01*
X115354905Y-78632565D01*
X115344661Y-78603322D01*
X115341665Y-78602541D01*
X115316032Y-78623580D01*
X115309870Y-78632565D01*
X115242238Y-78632565D01*
X115239793Y-78605376D01*
X115275762Y-78556898D01*
X115332253Y-78547894D01*
X115385915Y-78573812D01*
G37*
G36*
X115925354Y-82520626D02*
G01*
X115925354Y-82685756D01*
X115610106Y-82685756D01*
X115294858Y-82685756D01*
X115294858Y-82805851D01*
X115294858Y-82925945D01*
X115565071Y-82925945D01*
X115835283Y-82925945D01*
X115835283Y-83076063D01*
X115835283Y-83226182D01*
X115565071Y-83226182D01*
X115294858Y-83226182D01*
X115294858Y-83466371D01*
X115294858Y-83706560D01*
X115084692Y-83706560D01*
X114874527Y-83706560D01*
X114874527Y-83031028D01*
X114874527Y-82355496D01*
X115399941Y-82355496D01*
X115925354Y-82355496D01*
X115925354Y-82520626D01*
G37*
G36*
X116081292Y-84438537D02*
G01*
X116090484Y-84487175D01*
X116071922Y-84545863D01*
X116030122Y-84573651D01*
X115985914Y-84562562D01*
X115967087Y-84534429D01*
X115962544Y-84487175D01*
X116015425Y-84487175D01*
X116038272Y-84516326D01*
X116045449Y-84517198D01*
X116074600Y-84494351D01*
X116075472Y-84487175D01*
X116052625Y-84458023D01*
X116045449Y-84457151D01*
X116016298Y-84479998D01*
X116015425Y-84487175D01*
X115962544Y-84487175D01*
X115960376Y-84464629D01*
X115989001Y-84414392D01*
X116037852Y-84402802D01*
X116081292Y-84438537D01*
G37*
G36*
X116163797Y-83985855D02*
G01*
X116165111Y-83995257D01*
X116158037Y-83997469D01*
X116113532Y-84021144D01*
X116105496Y-84036820D01*
X116130197Y-84064977D01*
X116158037Y-84076171D01*
X116184764Y-84087019D01*
X116154136Y-84092734D01*
X116143026Y-84093384D01*
X116090230Y-84107454D01*
X116075472Y-84126891D01*
X116052625Y-84156042D01*
X116045449Y-84156915D01*
X116024368Y-84130825D01*
X116015428Y-84067964D01*
X116015425Y-84066844D01*
X116021637Y-84005115D01*
X116052734Y-83981971D01*
X116113002Y-83980255D01*
X116163797Y-83985855D01*
G37*
G36*
X116256601Y-78934096D02*
G01*
X116270626Y-78992848D01*
X116254125Y-79054698D01*
X116202939Y-79077519D01*
X116139607Y-79066614D01*
X116117162Y-79039990D01*
X116111878Y-78981218D01*
X116175864Y-78981218D01*
X116180555Y-78992848D01*
X116207535Y-79021490D01*
X116212351Y-79022872D01*
X116225246Y-78999643D01*
X116225591Y-78992848D01*
X116202510Y-78963978D01*
X116193795Y-78962825D01*
X116175864Y-78981218D01*
X116111878Y-78981218D01*
X116110479Y-78965659D01*
X116146447Y-78917182D01*
X116202939Y-78908178D01*
X116256601Y-78934096D01*
G37*
G36*
X116636798Y-84403269D02*
G01*
X116622860Y-84422102D01*
X116619802Y-84424079D01*
X116596840Y-84449940D01*
X116627076Y-84477189D01*
X116631523Y-84479713D01*
X116666737Y-84517718D01*
X116651552Y-84552737D01*
X116594928Y-84572722D01*
X116561585Y-84573763D01*
X116515232Y-84568264D01*
X116528283Y-84558118D01*
X116535492Y-84556134D01*
X116573184Y-84541879D01*
X116559457Y-84520042D01*
X116538411Y-84504124D01*
X116505225Y-84457333D01*
X116523590Y-84416927D01*
X116585609Y-84397739D01*
X116595152Y-84397563D01*
X116636798Y-84403269D01*
G37*
G36*
X115784140Y-78807011D02*
G01*
X115822872Y-78862392D01*
X115824573Y-78917407D01*
X115783955Y-78954686D01*
X115723551Y-78959570D01*
X115674005Y-78931986D01*
X115665999Y-78917789D01*
X115662222Y-78870982D01*
X115715189Y-78870982D01*
X115736983Y-78901556D01*
X115745212Y-78902777D01*
X115774455Y-78892534D01*
X115775236Y-78889538D01*
X115754197Y-78863904D01*
X115745212Y-78857742D01*
X115717546Y-78860122D01*
X115715189Y-78870982D01*
X115662222Y-78870982D01*
X115660508Y-78849735D01*
X115688812Y-78797211D01*
X115725582Y-78782683D01*
X115784140Y-78807011D01*
G37*
G36*
X116036336Y-78891988D02*
G01*
X116057574Y-78944845D01*
X116040335Y-79000354D01*
X115991600Y-79047416D01*
X115931276Y-79039460D01*
X115895648Y-79008243D01*
X115873790Y-78951195D01*
X115935675Y-78951195D01*
X115940366Y-78962825D01*
X115967346Y-78991467D01*
X115972162Y-78992848D01*
X115985057Y-78969619D01*
X115985402Y-78962825D01*
X115962321Y-78933955D01*
X115953606Y-78932801D01*
X115935675Y-78951195D01*
X115873790Y-78951195D01*
X115871471Y-78945142D01*
X115897873Y-78894139D01*
X115965631Y-78872759D01*
X115966945Y-78872754D01*
X116036336Y-78891988D01*
G37*
G36*
X114867021Y-83982284D02*
G01*
X114928866Y-84001402D01*
X114949037Y-84050124D01*
X114949586Y-84066844D01*
X114936384Y-84124586D01*
X114885343Y-84148796D01*
X114867021Y-84151403D01*
X114809624Y-84151324D01*
X114787613Y-84121349D01*
X114784456Y-84066844D01*
X114844503Y-84066844D01*
X114850558Y-84114565D01*
X114873197Y-84109769D01*
X114880532Y-84102872D01*
X114901101Y-84062016D01*
X114880532Y-84030815D01*
X114853644Y-84016037D01*
X114844722Y-84052393D01*
X114844503Y-84066844D01*
X114784456Y-84066844D01*
X114790322Y-84002131D01*
X114818857Y-83980339D01*
X114867021Y-83982284D01*
G37*
G36*
X115220662Y-83982532D02*
G01*
X115218776Y-83993177D01*
X115189775Y-84006796D01*
X115151002Y-84026602D01*
X115166686Y-84033825D01*
X115182269Y-84034710D01*
X115226883Y-84050716D01*
X115234811Y-84066844D01*
X115209935Y-84093337D01*
X115182269Y-84098977D01*
X115150135Y-84103861D01*
X115171818Y-84118948D01*
X115189775Y-84126891D01*
X115225365Y-84145325D01*
X115208779Y-84152902D01*
X115167257Y-84154804D01*
X115108696Y-84148206D01*
X115087090Y-84111936D01*
X115084692Y-84066844D01*
X115092113Y-84003148D01*
X115125866Y-83980441D01*
X115167257Y-83978883D01*
X115220662Y-83982532D01*
G37*
G36*
X115592127Y-78713531D02*
G01*
X115618895Y-78764436D01*
X115595232Y-78827549D01*
X115594777Y-78828101D01*
X115532594Y-78869584D01*
X115469622Y-78852549D01*
X115448134Y-78831524D01*
X115431127Y-78782683D01*
X115505023Y-78782683D01*
X115515267Y-78811926D01*
X115518263Y-78812707D01*
X115543896Y-78791668D01*
X115550059Y-78782683D01*
X115547678Y-78755017D01*
X115536819Y-78752659D01*
X115506245Y-78774454D01*
X115505023Y-78782683D01*
X115431127Y-78782683D01*
X115426747Y-78770103D01*
X115453594Y-78717286D01*
X115517896Y-78692762D01*
X115524190Y-78692612D01*
X115592127Y-78713531D01*
G37*
G36*
X116571726Y-83982532D02*
G01*
X116569839Y-83993177D01*
X116540839Y-84006796D01*
X116502065Y-84026602D01*
X116517750Y-84033825D01*
X116533333Y-84034710D01*
X116577947Y-84050716D01*
X116585874Y-84066844D01*
X116560999Y-84093337D01*
X116533333Y-84098977D01*
X116501199Y-84103861D01*
X116522882Y-84118948D01*
X116540839Y-84126891D01*
X116576429Y-84145325D01*
X116559843Y-84152902D01*
X116518321Y-84154804D01*
X116459760Y-84148206D01*
X116438154Y-84111936D01*
X116435756Y-84066844D01*
X116443176Y-84003148D01*
X116476930Y-83980441D01*
X116518321Y-83978883D01*
X116571726Y-83982532D01*
G37*
G36*
X116901986Y-84402863D02*
G01*
X116900099Y-84413508D01*
X116871099Y-84427127D01*
X116832326Y-84446933D01*
X116848010Y-84454156D01*
X116863593Y-84455041D01*
X116908207Y-84471047D01*
X116916134Y-84487175D01*
X116891259Y-84513667D01*
X116863593Y-84519308D01*
X116831459Y-84524192D01*
X116853142Y-84539279D01*
X116871099Y-84547222D01*
X116906689Y-84565656D01*
X116890103Y-84573233D01*
X116848581Y-84575135D01*
X116790020Y-84568537D01*
X116768414Y-84532267D01*
X116766016Y-84487175D01*
X116773436Y-84423479D01*
X116807190Y-84400772D01*
X116848581Y-84399214D01*
X116901986Y-84402863D01*
G37*
G36*
X115822227Y-84388242D02*
G01*
X115835027Y-84457627D01*
X115835283Y-84472163D01*
X115827742Y-84541619D01*
X115809200Y-84576338D01*
X115805260Y-84577246D01*
X115777786Y-84553314D01*
X115775236Y-84537214D01*
X115751097Y-84501782D01*
X115730201Y-84497182D01*
X115690340Y-84518640D01*
X115685165Y-84537214D01*
X115667217Y-84573845D01*
X115655142Y-84577246D01*
X115635297Y-84550852D01*
X115625377Y-84485953D01*
X115625118Y-84472163D01*
X115633376Y-84392647D01*
X115659570Y-84369149D01*
X115705795Y-84399720D01*
X115742036Y-84416122D01*
X115758607Y-84399720D01*
X115794653Y-84366955D01*
X115822227Y-84388242D01*
G37*
G36*
X116788534Y-83982284D02*
G01*
X116850379Y-84001402D01*
X116870550Y-84050124D01*
X116871099Y-84066844D01*
X116857897Y-84124586D01*
X116806856Y-84148796D01*
X116788534Y-84151403D01*
X116731137Y-84151324D01*
X116709126Y-84121349D01*
X116706941Y-84083627D01*
X116766016Y-84083627D01*
X116780571Y-84114704D01*
X116796040Y-84111879D01*
X116824918Y-84073495D01*
X116826063Y-84065072D01*
X116803163Y-84037629D01*
X116796040Y-84036820D01*
X116769691Y-84061258D01*
X116766016Y-84083627D01*
X116706941Y-84083627D01*
X116705969Y-84066844D01*
X116711835Y-84002131D01*
X116740370Y-83980339D01*
X116788534Y-83982284D01*
G37*
G36*
X114535324Y-84002862D02*
G01*
X114544264Y-84065723D01*
X114544267Y-84066844D01*
X114527960Y-84136490D01*
X114488586Y-84157389D01*
X114440462Y-84124974D01*
X114426577Y-84104373D01*
X114402534Y-84067843D01*
X114395655Y-84083873D01*
X114395062Y-84104373D01*
X114380101Y-84148956D01*
X114364125Y-84156915D01*
X114343044Y-84130825D01*
X114334104Y-84067964D01*
X114334101Y-84066844D01*
X114340933Y-83996808D01*
X114366895Y-83981794D01*
X114420189Y-84018324D01*
X114429314Y-84026461D01*
X114470035Y-84059430D01*
X114483181Y-84050414D01*
X114484220Y-84026461D01*
X114499095Y-83983607D01*
X114514243Y-83976773D01*
X114535324Y-84002862D01*
G37*
G36*
X115105773Y-84423193D02*
G01*
X115114714Y-84486054D01*
X115114716Y-84487175D01*
X115098409Y-84556821D01*
X115059035Y-84577720D01*
X115010911Y-84545305D01*
X114997026Y-84524704D01*
X114972983Y-84488174D01*
X114966104Y-84504204D01*
X114965511Y-84524704D01*
X114950550Y-84569287D01*
X114934574Y-84577246D01*
X114913494Y-84551156D01*
X114904553Y-84488295D01*
X114904550Y-84487175D01*
X114911382Y-84417139D01*
X114937344Y-84402125D01*
X114990638Y-84438655D01*
X114999763Y-84446792D01*
X115040485Y-84479761D01*
X115053630Y-84470745D01*
X115054669Y-84446792D01*
X115069544Y-84403938D01*
X115084692Y-84397104D01*
X115105773Y-84423193D01*
G37*
G36*
X115526104Y-84002862D02*
G01*
X115535045Y-84065723D01*
X115535047Y-84066844D01*
X115518740Y-84136490D01*
X115479366Y-84157389D01*
X115431242Y-84124974D01*
X115417357Y-84104373D01*
X115393314Y-84067843D01*
X115386435Y-84083873D01*
X115385842Y-84104373D01*
X115370881Y-84148956D01*
X115354905Y-84156915D01*
X115333825Y-84130825D01*
X115324884Y-84067964D01*
X115324881Y-84066844D01*
X115331713Y-83996808D01*
X115357675Y-83981794D01*
X115410969Y-84018324D01*
X115420094Y-84026461D01*
X115460816Y-84059430D01*
X115473961Y-84050414D01*
X115475000Y-84026461D01*
X115489875Y-83983607D01*
X115505023Y-83976773D01*
X115526104Y-84002862D01*
G37*
G36*
X113643558Y-82801802D02*
G01*
X113644239Y-82977039D01*
X113647129Y-83102953D01*
X113653496Y-83190259D01*
X113664611Y-83249672D01*
X113681741Y-83291910D01*
X113705784Y-83327215D01*
X113788354Y-83388330D01*
X113893736Y-83409428D01*
X113998904Y-83389285D01*
X114063889Y-83346276D01*
X114086866Y-83318663D01*
X114103133Y-83282589D01*
X114113830Y-83228065D01*
X114120100Y-83145101D01*
X114123084Y-83023708D01*
X114123924Y-82853895D01*
X114123936Y-82820863D01*
X114123936Y-82355496D01*
X114336037Y-82355496D01*
X114548137Y-82355496D01*
X114538696Y-82878816D01*
X114533728Y-83089183D01*
X114525318Y-83248920D01*
X114510283Y-83367445D01*
X114485436Y-83454175D01*
X114447595Y-83518528D01*
X114393575Y-83569921D01*
X114320192Y-83617771D01*
X114281344Y-83639908D01*
X114151555Y-83689447D01*
X113989205Y-83718716D01*
X113819124Y-83725116D01*
X113666138Y-83706046D01*
X113661250Y-83704848D01*
X113486591Y-83637524D01*
X113354736Y-83535611D01*
X113280388Y-83424202D01*
X113258324Y-83366447D01*
X113242739Y-83298707D01*
X113232571Y-83209781D01*
X113226757Y-83088468D01*
X113224235Y-82923570D01*
X113223886Y-82828368D01*
X113223227Y-82355496D01*
X113433392Y-82355496D01*
X113643558Y-82355496D01*
X113643558Y-82801802D01*
G37*
G36*
X116440602Y-82361952D02*
G01*
X116745685Y-82370508D01*
X116826046Y-82670744D01*
X116862437Y-82807342D01*
X116895164Y-82931319D01*
X116919657Y-83025315D01*
X116928632Y-83060627D01*
X116943044Y-83105874D01*
X116958309Y-83119266D01*
X116976689Y-83095656D01*
X117000448Y-83029898D01*
X117031850Y-82916845D01*
X117073156Y-82751351D01*
X117083586Y-82708274D01*
X117168694Y-82355496D01*
X117462745Y-82355496D01*
X117756796Y-82355496D01*
X117756796Y-83031028D01*
X117756796Y-83706560D01*
X117543359Y-83706560D01*
X117329921Y-83706560D01*
X117340847Y-83258559D01*
X117344118Y-83103137D01*
X117345875Y-82972268D01*
X117346064Y-82876092D01*
X117344627Y-82824745D01*
X117343286Y-82819046D01*
X117332713Y-82849526D01*
X117309708Y-82927058D01*
X117277421Y-83040702D01*
X117239001Y-83179520D01*
X117229451Y-83214506D01*
X117189039Y-83362516D01*
X117153265Y-83492737D01*
X117125612Y-83592544D01*
X117109564Y-83649314D01*
X117108167Y-83654019D01*
X117085241Y-83685912D01*
X117031868Y-83702008D01*
X116933655Y-83706557D01*
X116930280Y-83706560D01*
X116768331Y-83706560D01*
X116734461Y-83578959D01*
X116699438Y-83448956D01*
X116660185Y-83306349D01*
X116620065Y-83162965D01*
X116582439Y-83030631D01*
X116550670Y-82921177D01*
X116528118Y-82846429D01*
X116518252Y-82818291D01*
X116516246Y-82843772D01*
X116515855Y-82919115D01*
X116517004Y-83034159D01*
X116519619Y-83178741D01*
X116521445Y-83258559D01*
X116532372Y-83706560D01*
X116333946Y-83706560D01*
X116135520Y-83706560D01*
X116135520Y-83029978D01*
X116135520Y-82353395D01*
X116440602Y-82361952D01*
G37*
G36*
X116016157Y-78058359D02*
G01*
X116165897Y-78130828D01*
X116287735Y-78240000D01*
X116369893Y-78376375D01*
X116396000Y-78472150D01*
X116431359Y-78578515D01*
X116493859Y-78675186D01*
X116496046Y-78677600D01*
X116596410Y-78811962D01*
X116640679Y-78932024D01*
X116629803Y-79034244D01*
X116564733Y-79115078D01*
X116446420Y-79170986D01*
X116358584Y-79189888D01*
X116225591Y-79209832D01*
X116225591Y-79552762D01*
X116225591Y-79895692D01*
X116368203Y-79954009D01*
X116547054Y-80033943D01*
X116672393Y-80107680D01*
X116749636Y-80180570D01*
X116784197Y-80257964D01*
X116781491Y-80345211D01*
X116778279Y-80359188D01*
X116758630Y-80410282D01*
X116722857Y-80452330D01*
X116663009Y-80488649D01*
X116571135Y-80522554D01*
X116439285Y-80557364D01*
X116259509Y-80596394D01*
X116163330Y-80615728D01*
X116001627Y-80648095D01*
X115859098Y-80677280D01*
X115746910Y-80700946D01*
X115676230Y-80716755D01*
X115658935Y-80721308D01*
X115668109Y-80745755D01*
X115718397Y-80809308D01*
X115807552Y-80909535D01*
X115933328Y-81044002D01*
X116093480Y-81210276D01*
X116285761Y-81405923D01*
X116357145Y-81477787D01*
X116529273Y-81652081D01*
X116686401Y-81813953D01*
X116823796Y-81958312D01*
X116936726Y-82080067D01*
X117020458Y-82174125D01*
X117070259Y-82235397D01*
X117082368Y-82257919D01*
X117044076Y-82290073D01*
X117014419Y-82295449D01*
X116980677Y-82274769D01*
X116909950Y-82215841D01*
X116807249Y-82123333D01*
X116677587Y-82001915D01*
X116525976Y-81856254D01*
X116357430Y-81691019D01*
X116240368Y-81574531D01*
X116040712Y-81375466D01*
X115879066Y-81216200D01*
X115751695Y-81093367D01*
X115654864Y-81003603D01*
X115584839Y-80943544D01*
X115537883Y-80909825D01*
X115510263Y-80899082D01*
X115498755Y-80906505D01*
X115485844Y-80953233D01*
X115464186Y-81047443D01*
X115436277Y-81177632D01*
X115404614Y-81332299D01*
X115386281Y-81424763D01*
X115345327Y-81623820D01*
X115308942Y-81771029D01*
X115273098Y-81873972D01*
X115233764Y-81940228D01*
X115186911Y-81977380D01*
X115128508Y-81993006D01*
X115083040Y-81995212D01*
X115040558Y-81992752D01*
X115001698Y-81982325D01*
X114964041Y-81959364D01*
X114925170Y-81919300D01*
X114882664Y-81857564D01*
X114834105Y-81769589D01*
X114777075Y-81650805D01*
X114709155Y-81496645D01*
X114627925Y-81302540D01*
X114530967Y-81063922D01*
X114415863Y-80776223D01*
X114350110Y-80610931D01*
X114247130Y-80350463D01*
X114151373Y-80105727D01*
X114065088Y-79882657D01*
X113990526Y-79687187D01*
X113929937Y-79525253D01*
X113885569Y-79402788D01*
X113859672Y-79325728D01*
X113853723Y-79301446D01*
X113861590Y-79272942D01*
X114016667Y-79272942D01*
X114024930Y-79306074D01*
X114052849Y-79388056D01*
X114097740Y-79512003D01*
X114156922Y-79671026D01*
X114227709Y-79858241D01*
X114307420Y-80066761D01*
X114393371Y-80289698D01*
X114482879Y-80520167D01*
X114573260Y-80751280D01*
X114661831Y-80976153D01*
X114745909Y-81187897D01*
X114822810Y-81379626D01*
X114889852Y-81544455D01*
X114944351Y-81675496D01*
X114983624Y-81765862D01*
X115004258Y-81807565D01*
X115055206Y-81843453D01*
X115114628Y-81835392D01*
X115156309Y-81788448D01*
X115159611Y-81777541D01*
X115170565Y-81726861D01*
X115190989Y-81628306D01*
X115218630Y-81492896D01*
X115251238Y-81331648D01*
X115280510Y-81185842D01*
X115316000Y-81014808D01*
X115349732Y-80863786D01*
X115379261Y-80742855D01*
X115402143Y-80662093D01*
X115414716Y-80632376D01*
X115452104Y-80617720D01*
X115538947Y-80594209D01*
X115665690Y-80564103D01*
X115822776Y-80529659D01*
X116000651Y-80493137D01*
X116020217Y-80489259D01*
X116199230Y-80452324D01*
X116357926Y-80416579D01*
X116486885Y-80384392D01*
X116576683Y-80358131D01*
X116617899Y-80340162D01*
X116619065Y-80338788D01*
X116626065Y-80283261D01*
X116616679Y-80255459D01*
X116584870Y-80235806D01*
X116503987Y-80197218D01*
X116380934Y-80142486D01*
X116222616Y-80074402D01*
X116035937Y-79995758D01*
X115827803Y-79909345D01*
X115605116Y-79817955D01*
X115374783Y-79724379D01*
X115143707Y-79631409D01*
X114918793Y-79541837D01*
X114706946Y-79458453D01*
X114515070Y-79384050D01*
X114350070Y-79321419D01*
X114306116Y-79305318D01*
X114756899Y-79305318D01*
X114787494Y-79319845D01*
X114864622Y-79352654D01*
X114978959Y-79399999D01*
X115121176Y-79458133D01*
X115281947Y-79523310D01*
X115451946Y-79591783D01*
X115621845Y-79659807D01*
X115782318Y-79723634D01*
X115924038Y-79779520D01*
X116037678Y-79823717D01*
X116113913Y-79852479D01*
X116143026Y-79862089D01*
X116152521Y-79834838D01*
X116160038Y-79760243D01*
X116164609Y-79651001D01*
X116165543Y-79566579D01*
X116165543Y-79269624D01*
X115946706Y-79258573D01*
X115761851Y-79231197D01*
X115577783Y-79172307D01*
X115412018Y-79089580D01*
X115282070Y-78990695D01*
X115246740Y-78951756D01*
X115191874Y-78882994D01*
X115269001Y-78882994D01*
X115285509Y-78906151D01*
X115292464Y-78914637D01*
X115390570Y-79000226D01*
X115529793Y-79079233D01*
X115691212Y-79143885D01*
X115855910Y-79186409D01*
X115985402Y-79199352D01*
X116051393Y-79198803D01*
X116075296Y-79194612D01*
X116052670Y-79183642D01*
X115979073Y-79162752D01*
X115906520Y-79143605D01*
X115762321Y-79098085D01*
X115607360Y-79037459D01*
X115501201Y-78987850D01*
X115382861Y-78926557D01*
X115309899Y-78890469D01*
X115274538Y-78876857D01*
X115269001Y-78882994D01*
X115191874Y-78882994D01*
X115169327Y-78854737D01*
X114956840Y-79073875D01*
X114869459Y-79166301D01*
X114802091Y-79242009D01*
X114762996Y-79291442D01*
X114756899Y-79305318D01*
X114306116Y-79305318D01*
X114218850Y-79273351D01*
X114128315Y-79242639D01*
X114085464Y-79232071D01*
X114031982Y-79252475D01*
X114016667Y-79272942D01*
X113861590Y-79272942D01*
X113871715Y-79236260D01*
X113915076Y-79163144D01*
X113915949Y-79162027D01*
X113988865Y-79103344D01*
X114088344Y-79084042D01*
X114220333Y-79104244D01*
X114390781Y-79164072D01*
X114410026Y-79172178D01*
X114514782Y-79215297D01*
X114599260Y-79247217D01*
X114647353Y-79261904D01*
X114650485Y-79262249D01*
X114681958Y-79241611D01*
X114744092Y-79184914D01*
X114827686Y-79101008D01*
X114916795Y-79006125D01*
X115151946Y-78749188D01*
X115090295Y-78683370D01*
X115024499Y-78590595D01*
X114984092Y-78489029D01*
X114981695Y-78456770D01*
X115054669Y-78456770D01*
X115082578Y-78555189D01*
X115160443Y-78660520D01*
X115279467Y-78767266D01*
X115430852Y-78869932D01*
X115605804Y-78963023D01*
X115795524Y-79041043D01*
X115991218Y-79098496D01*
X116120508Y-79122639D01*
X116248796Y-79127488D01*
X116380647Y-79111794D01*
X116489601Y-79079437D01*
X116518321Y-79064330D01*
X116569182Y-79016322D01*
X116585874Y-78975653D01*
X116568311Y-78904203D01*
X116525732Y-78817188D01*
X116473298Y-78743671D01*
X116456205Y-78727148D01*
X116421670Y-78710682D01*
X116400396Y-78742641D01*
X116393606Y-78766864D01*
X116375638Y-78812700D01*
X116340170Y-78835159D01*
X116269513Y-78842330D01*
X116227694Y-78842730D01*
X116052298Y-78823218D01*
X115860371Y-78769979D01*
X115670817Y-78690962D01*
X115502543Y-78594112D01*
X115374455Y-78487378D01*
X115369496Y-78481981D01*
X115333786Y-78427892D01*
X115335906Y-78407282D01*
X115395652Y-78407282D01*
X115424486Y-78445805D01*
X115482865Y-78498652D01*
X115560448Y-78556528D01*
X115646894Y-78610142D01*
X115652313Y-78613116D01*
X115768085Y-78667470D01*
X115896601Y-78714097D01*
X116025969Y-78750493D01*
X116144295Y-78774158D01*
X116239686Y-78782588D01*
X116300247Y-78773282D01*
X116315662Y-78752659D01*
X116289378Y-78732360D01*
X116225215Y-78722754D01*
X116216409Y-78722636D01*
X116096600Y-78706769D01*
X115947825Y-78664127D01*
X115790463Y-78602150D01*
X115644894Y-78528274D01*
X115589912Y-78493971D01*
X115504483Y-78439840D01*
X115436772Y-78402986D01*
X115406702Y-78392376D01*
X115395652Y-78407282D01*
X115335906Y-78407282D01*
X115339606Y-78371305D01*
X115351374Y-78343100D01*
X115369537Y-78303237D01*
X115474845Y-78303237D01*
X115520803Y-78360184D01*
X115538196Y-78375406D01*
X115702592Y-78487791D01*
X115895203Y-78578730D01*
X116093326Y-78639176D01*
X116252013Y-78659904D01*
X116353495Y-78662588D01*
X116338575Y-78530224D01*
X116291873Y-78368573D01*
X116194487Y-78236189D01*
X116074140Y-78151507D01*
X115919458Y-78100066D01*
X115763442Y-78106066D01*
X115640130Y-78148088D01*
X115531200Y-78204566D01*
X115477208Y-78253823D01*
X115474845Y-78303237D01*
X115369537Y-78303237D01*
X115387394Y-78264044D01*
X115264890Y-78280475D01*
X115147827Y-78308294D01*
X115080772Y-78357522D01*
X115055457Y-78435093D01*
X115054669Y-78456770D01*
X114981695Y-78456770D01*
X114977590Y-78401511D01*
X114980620Y-78389193D01*
X115038056Y-78301641D01*
X115139040Y-78240392D01*
X115270079Y-78212991D01*
X115297135Y-78212234D01*
X115385497Y-78206389D01*
X115446565Y-78191545D01*
X115460253Y-78181781D01*
X115515685Y-78133138D01*
X115609773Y-78086684D01*
X115721416Y-78050517D01*
X115829514Y-78032733D01*
X115850295Y-78032092D01*
X116016157Y-78058359D01*
G37*
%TD*%
M02*
