%TF.GenerationSoftware,KiCad,Pcbnew,8.0.6*%
%TF.CreationDate,2024-12-02T01:00:14-05:00*%
%TF.ProjectId,Pixart pcb,50697861-7274-4207-9063-622e6b696361,rev?*%
%TF.SameCoordinates,Original*%
%TF.FileFunction,Copper,L2,Bot*%
%TF.FilePolarity,Positive*%
%FSLAX46Y46*%
G04 Gerber Fmt 4.6, Leading zero omitted, Abs format (unit mm)*
G04 Created by KiCad (PCBNEW 8.0.6) date 2024-12-02 01:00:14*
%MOMM*%
%LPD*%
G01*
G04 APERTURE LIST*
%TA.AperFunction,SMDPad,CuDef*%
%ADD10R,0.650000X1.300000*%
%TD*%
%TA.AperFunction,ComponentPad*%
%ADD11R,2.000000X2.600000*%
%TD*%
%TA.AperFunction,ComponentPad*%
%ADD12O,2.000000X2.600000*%
%TD*%
%TA.AperFunction,ViaPad*%
%ADD13C,0.600000*%
%TD*%
%TA.AperFunction,Conductor*%
%ADD14C,0.300000*%
%TD*%
%TA.AperFunction,Conductor*%
%ADD15C,0.200000*%
%TD*%
G04 APERTURE END LIST*
D10*
%TO.P,PAJ7025R3,1,G5*%
%TO.N,unconnected-(PAJ7025R3-G5-Pad1)*%
X122475000Y-84900000D03*
%TO.P,PAJ7025R3,2,G6*%
%TO.N,Net-(J2-Pin_2)*%
X123625000Y-84900000D03*
%TO.P,PAJ7025R3,3,G7*%
%TO.N,unconnected-(PAJ7025R3-G7-Pad3)*%
X124775000Y-84900000D03*
%TO.P,PAJ7025R3,4,G8*%
%TO.N,Net-(J2-Pin_3)*%
X125925000Y-84900000D03*
%TO.P,PAJ7025R3,5,G9/CSB*%
%TO.N,Net-(J2-Pin_4)*%
X127075000Y-84900000D03*
%TO.P,PAJ7025R3,6,G10/SCK*%
%TO.N,Net-(J2-Pin_5)*%
X128225000Y-84900000D03*
%TO.P,PAJ7025R3,7,G11/MISO*%
%TO.N,Net-(J2-Pin_6)*%
X129375000Y-84900000D03*
%TO.P,PAJ7025R3,8,G12/MOSI*%
%TO.N,Net-(J2-Pin_7)*%
X129375000Y-82500000D03*
%TO.P,PAJ7025R3,9,VSSD*%
%TO.N,GND*%
X128225000Y-82500000D03*
%TO.P,PAJ7025R3,10,G13/LED_SIDE*%
%TO.N,Net-(J2-Pin_9)*%
X127075000Y-82500000D03*
%TO.P,PAJ7025R3,11,G14/LED_FRT*%
%TO.N,unconnected-(PAJ7025R3-G14{slash}LED_FRT-Pad11)*%
X125925000Y-82500000D03*
%TO.P,PAJ7025R3,12,CP_1*%
%TO.N,unconnected-(PAJ7025R3-CP_1-Pad12)*%
X124775000Y-82500000D03*
%TO.P,PAJ7025R3,13,CP_2*%
%TO.N,unconnected-(PAJ7025R3-CP_2-Pad13)*%
X123625000Y-82500000D03*
%TO.P,PAJ7025R3,14,VDDMA*%
%TO.N,VCC*%
X122475000Y-82500000D03*
%TD*%
D11*
%TO.P,J2,1,Pin_1*%
%TO.N,VCC*%
X115925000Y-100175000D03*
D12*
%TO.P,J2,2,Pin_2*%
%TO.N,Net-(J2-Pin_2)*%
X118465000Y-100175000D03*
%TO.P,J2,3,Pin_3*%
%TO.N,Net-(J2-Pin_3)*%
X121005000Y-100175000D03*
%TO.P,J2,4,Pin_4*%
%TO.N,Net-(J2-Pin_4)*%
X123545000Y-100175000D03*
%TO.P,J2,5,Pin_5*%
%TO.N,Net-(J2-Pin_5)*%
X126085000Y-100175000D03*
%TO.P,J2,6,Pin_6*%
%TO.N,Net-(J2-Pin_6)*%
X128625000Y-100175000D03*
%TO.P,J2,7,Pin_7*%
%TO.N,Net-(J2-Pin_7)*%
X131165000Y-100175000D03*
%TO.P,J2,8,Pin_8*%
%TO.N,GND*%
X133705000Y-100175000D03*
%TO.P,J2,9,Pin_9*%
%TO.N,Net-(J2-Pin_9)*%
X136245000Y-100175000D03*
%TD*%
D13*
%TO.N,Net-(J2-Pin_5)*%
X128235000Y-86080000D03*
%TO.N,Net-(J2-Pin_4)*%
X127085000Y-86080000D03*
%TO.N,Net-(J2-Pin_3)*%
X125925000Y-86100000D03*
%TO.N,Net-(J2-Pin_6)*%
X129385000Y-86080000D03*
%TO.N,Net-(J2-Pin_2)*%
X123625000Y-86100000D03*
%TO.N,GND*%
X128225000Y-81300000D03*
%TO.N,VCC*%
X122475000Y-81300000D03*
%TO.N,Net-(J2-Pin_7)*%
X129375000Y-81300000D03*
%TO.N,Net-(J2-Pin_9)*%
X127075000Y-81300000D03*
%TD*%
D14*
%TO.N,Net-(J2-Pin_5)*%
X128225000Y-84900000D02*
X128225000Y-86070000D01*
D15*
X128225000Y-86070000D02*
X128235000Y-86080000D01*
D14*
%TO.N,Net-(J2-Pin_4)*%
X127075000Y-84900000D02*
X127075000Y-86070000D01*
D15*
X127075000Y-86070000D02*
X127085000Y-86080000D01*
D14*
%TO.N,Net-(J2-Pin_3)*%
X125925000Y-84900000D02*
X125925000Y-86100000D01*
D15*
%TO.N,Net-(J2-Pin_6)*%
X129375000Y-86070000D02*
X129385000Y-86080000D01*
D14*
X129375000Y-84900000D02*
X129375000Y-86070000D01*
%TO.N,Net-(J2-Pin_2)*%
X123625000Y-84900000D02*
X123625000Y-86100000D01*
%TO.N,GND*%
X128225000Y-82500000D02*
X128225000Y-81300000D01*
%TO.N,VCC*%
X122475000Y-82500000D02*
X122475000Y-81300000D01*
%TO.N,Net-(J2-Pin_7)*%
X129375000Y-82500000D02*
X129375000Y-81300000D01*
%TO.N,Net-(J2-Pin_9)*%
X127075000Y-82500000D02*
X127075000Y-81300000D01*
%TD*%
%TA.AperFunction,Conductor*%
%TO.N,GND*%
G36*
X139917539Y-77795185D02*
G01*
X139963294Y-77847989D01*
X139974500Y-77899500D01*
X139974500Y-107350500D01*
X139954815Y-107417539D01*
X139902011Y-107463294D01*
X139850500Y-107474500D01*
X112774500Y-107474500D01*
X112707461Y-107454815D01*
X112661706Y-107402011D01*
X112650500Y-107350500D01*
X112650500Y-98827135D01*
X114424500Y-98827135D01*
X114424500Y-101522870D01*
X114424501Y-101522876D01*
X114430908Y-101582483D01*
X114481202Y-101717328D01*
X114481206Y-101717335D01*
X114567452Y-101832544D01*
X114567455Y-101832547D01*
X114682664Y-101918793D01*
X114682671Y-101918797D01*
X114817517Y-101969091D01*
X114817516Y-101969091D01*
X114824444Y-101969835D01*
X114877127Y-101975500D01*
X116972872Y-101975499D01*
X117032483Y-101969091D01*
X117167331Y-101918796D01*
X117282546Y-101832546D01*
X117368796Y-101717331D01*
X117368797Y-101717326D01*
X117373047Y-101709546D01*
X117376380Y-101711366D01*
X117407292Y-101669766D01*
X117472669Y-101645116D01*
X117540994Y-101659725D01*
X117554835Y-101668446D01*
X117678567Y-101758343D01*
X117777991Y-101809002D01*
X117889003Y-101865566D01*
X117889005Y-101865566D01*
X117889008Y-101865568D01*
X118009412Y-101904689D01*
X118113631Y-101938553D01*
X118346903Y-101975500D01*
X118346908Y-101975500D01*
X118583097Y-101975500D01*
X118816368Y-101938553D01*
X118817876Y-101938063D01*
X119040992Y-101865568D01*
X119251433Y-101758343D01*
X119442510Y-101619517D01*
X119609517Y-101452510D01*
X119634682Y-101417872D01*
X119690011Y-101375207D01*
X119759625Y-101369228D01*
X119821420Y-101401833D01*
X119835315Y-101417870D01*
X119860483Y-101452510D01*
X120027490Y-101619517D01*
X120218567Y-101758343D01*
X120317991Y-101809002D01*
X120429003Y-101865566D01*
X120429005Y-101865566D01*
X120429008Y-101865568D01*
X120549412Y-101904689D01*
X120653631Y-101938553D01*
X120886903Y-101975500D01*
X120886908Y-101975500D01*
X121123097Y-101975500D01*
X121356368Y-101938553D01*
X121357876Y-101938063D01*
X121580992Y-101865568D01*
X121791433Y-101758343D01*
X121982510Y-101619517D01*
X122149517Y-101452510D01*
X122174682Y-101417872D01*
X122230011Y-101375207D01*
X122299625Y-101369228D01*
X122361420Y-101401833D01*
X122375315Y-101417870D01*
X122400483Y-101452510D01*
X122567490Y-101619517D01*
X122758567Y-101758343D01*
X122857991Y-101809002D01*
X122969003Y-101865566D01*
X122969005Y-101865566D01*
X122969008Y-101865568D01*
X123089412Y-101904689D01*
X123193631Y-101938553D01*
X123426903Y-101975500D01*
X123426908Y-101975500D01*
X123663097Y-101975500D01*
X123896368Y-101938553D01*
X123897876Y-101938063D01*
X124120992Y-101865568D01*
X124331433Y-101758343D01*
X124522510Y-101619517D01*
X124689517Y-101452510D01*
X124714682Y-101417872D01*
X124770011Y-101375207D01*
X124839625Y-101369228D01*
X124901420Y-101401833D01*
X124915315Y-101417870D01*
X124940483Y-101452510D01*
X125107490Y-101619517D01*
X125298567Y-101758343D01*
X125397991Y-101809002D01*
X125509003Y-101865566D01*
X125509005Y-101865566D01*
X125509008Y-101865568D01*
X125629412Y-101904689D01*
X125733631Y-101938553D01*
X125966903Y-101975500D01*
X125966908Y-101975500D01*
X126203097Y-101975500D01*
X126436368Y-101938553D01*
X126437876Y-101938063D01*
X126660992Y-101865568D01*
X126871433Y-101758343D01*
X127062510Y-101619517D01*
X127229517Y-101452510D01*
X127254682Y-101417872D01*
X127310011Y-101375207D01*
X127379625Y-101369228D01*
X127441420Y-101401833D01*
X127455315Y-101417870D01*
X127480483Y-101452510D01*
X127647490Y-101619517D01*
X127838567Y-101758343D01*
X127937991Y-101809002D01*
X128049003Y-101865566D01*
X128049005Y-101865566D01*
X128049008Y-101865568D01*
X128169412Y-101904689D01*
X128273631Y-101938553D01*
X128506903Y-101975500D01*
X128506908Y-101975500D01*
X128743097Y-101975500D01*
X128976368Y-101938553D01*
X128977876Y-101938063D01*
X129200992Y-101865568D01*
X129411433Y-101758343D01*
X129602510Y-101619517D01*
X129769517Y-101452510D01*
X129794682Y-101417872D01*
X129850011Y-101375207D01*
X129919625Y-101369228D01*
X129981420Y-101401833D01*
X129995315Y-101417870D01*
X130020483Y-101452510D01*
X130187490Y-101619517D01*
X130378567Y-101758343D01*
X130477991Y-101809002D01*
X130589003Y-101865566D01*
X130589005Y-101865566D01*
X130589008Y-101865568D01*
X130709412Y-101904689D01*
X130813631Y-101938553D01*
X131046903Y-101975500D01*
X131046908Y-101975500D01*
X131283097Y-101975500D01*
X131516368Y-101938553D01*
X131517876Y-101938063D01*
X131740992Y-101865568D01*
X131951433Y-101758343D01*
X132142510Y-101619517D01*
X132309517Y-101452510D01*
X132334992Y-101417446D01*
X132390318Y-101374783D01*
X132459931Y-101368802D01*
X132521727Y-101401407D01*
X132535625Y-101417446D01*
X132560863Y-101452183D01*
X132727813Y-101619133D01*
X132918828Y-101757914D01*
X133129195Y-101865102D01*
X133353744Y-101938063D01*
X133353750Y-101938065D01*
X133455000Y-101954101D01*
X133455000Y-100723482D01*
X133473409Y-100734111D01*
X133626009Y-100775000D01*
X133783991Y-100775000D01*
X133936591Y-100734111D01*
X133955000Y-100723482D01*
X133955000Y-101954100D01*
X134056249Y-101938065D01*
X134056255Y-101938063D01*
X134280804Y-101865102D01*
X134491171Y-101757914D01*
X134682186Y-101619133D01*
X134849137Y-101452182D01*
X134874371Y-101417450D01*
X134929700Y-101374783D01*
X134999314Y-101368802D01*
X135061109Y-101401407D01*
X135075007Y-101417446D01*
X135100483Y-101452510D01*
X135267490Y-101619517D01*
X135458567Y-101758343D01*
X135557991Y-101809002D01*
X135669003Y-101865566D01*
X135669005Y-101865566D01*
X135669008Y-101865568D01*
X135789412Y-101904689D01*
X135893631Y-101938553D01*
X136126903Y-101975500D01*
X136126908Y-101975500D01*
X136363097Y-101975500D01*
X136596368Y-101938553D01*
X136597876Y-101938063D01*
X136820992Y-101865568D01*
X137031433Y-101758343D01*
X137222510Y-101619517D01*
X137389517Y-101452510D01*
X137528343Y-101261433D01*
X137635568Y-101050992D01*
X137708553Y-100826368D01*
X137723165Y-100734111D01*
X137745500Y-100593097D01*
X137745500Y-99756902D01*
X137708553Y-99523631D01*
X137635566Y-99299003D01*
X137528342Y-99088566D01*
X137514999Y-99070201D01*
X137389517Y-98897490D01*
X137222510Y-98730483D01*
X137031433Y-98591657D01*
X136820996Y-98484433D01*
X136596368Y-98411446D01*
X136363097Y-98374500D01*
X136363092Y-98374500D01*
X136126908Y-98374500D01*
X136126903Y-98374500D01*
X135893631Y-98411446D01*
X135669003Y-98484433D01*
X135458566Y-98591657D01*
X135391404Y-98640454D01*
X135267490Y-98730483D01*
X135267488Y-98730485D01*
X135267487Y-98730485D01*
X135100485Y-98897487D01*
X135100478Y-98897496D01*
X135075008Y-98932552D01*
X135019678Y-98975218D01*
X134950064Y-98981196D01*
X134888270Y-98948589D01*
X134874372Y-98932551D01*
X134849135Y-98897815D01*
X134682186Y-98730866D01*
X134491171Y-98592085D01*
X134280802Y-98484897D01*
X134056247Y-98411934D01*
X133955000Y-98395897D01*
X133955000Y-99626517D01*
X133936591Y-99615889D01*
X133783991Y-99575000D01*
X133626009Y-99575000D01*
X133473409Y-99615889D01*
X133455000Y-99626517D01*
X133455000Y-98395897D01*
X133353752Y-98411934D01*
X133129197Y-98484897D01*
X132918828Y-98592085D01*
X132727813Y-98730866D01*
X132560866Y-98897813D01*
X132560861Y-98897819D01*
X132535624Y-98932554D01*
X132480293Y-98975218D01*
X132410680Y-98981196D01*
X132348885Y-98948588D01*
X132334997Y-98932560D01*
X132309517Y-98897490D01*
X132142510Y-98730483D01*
X131951433Y-98591657D01*
X131740996Y-98484433D01*
X131516368Y-98411446D01*
X131283097Y-98374500D01*
X131283092Y-98374500D01*
X131046908Y-98374500D01*
X131046903Y-98374500D01*
X130813631Y-98411446D01*
X130589003Y-98484433D01*
X130378566Y-98591657D01*
X130311404Y-98640454D01*
X130187490Y-98730483D01*
X130187488Y-98730485D01*
X130187487Y-98730485D01*
X130020484Y-98897488D01*
X129995318Y-98932127D01*
X129939987Y-98974792D01*
X129870374Y-98980771D01*
X129808579Y-98948165D01*
X129794682Y-98932127D01*
X129769517Y-98897490D01*
X129602510Y-98730483D01*
X129411433Y-98591657D01*
X129200996Y-98484433D01*
X128976368Y-98411446D01*
X128743097Y-98374500D01*
X128743092Y-98374500D01*
X128506908Y-98374500D01*
X128506903Y-98374500D01*
X128273631Y-98411446D01*
X128049003Y-98484433D01*
X127838566Y-98591657D01*
X127771404Y-98640454D01*
X127647490Y-98730483D01*
X127647488Y-98730485D01*
X127647487Y-98730485D01*
X127480484Y-98897488D01*
X127455318Y-98932127D01*
X127399987Y-98974792D01*
X127330374Y-98980771D01*
X127268579Y-98948165D01*
X127254682Y-98932127D01*
X127229517Y-98897490D01*
X127062510Y-98730483D01*
X126871433Y-98591657D01*
X126660996Y-98484433D01*
X126436368Y-98411446D01*
X126203097Y-98374500D01*
X126203092Y-98374500D01*
X125966908Y-98374500D01*
X125966903Y-98374500D01*
X125733631Y-98411446D01*
X125509003Y-98484433D01*
X125298566Y-98591657D01*
X125231404Y-98640454D01*
X125107490Y-98730483D01*
X125107488Y-98730485D01*
X125107487Y-98730485D01*
X124940484Y-98897488D01*
X124915318Y-98932127D01*
X124859987Y-98974792D01*
X124790374Y-98980771D01*
X124728579Y-98948165D01*
X124714682Y-98932127D01*
X124689517Y-98897490D01*
X124522510Y-98730483D01*
X124331433Y-98591657D01*
X124120996Y-98484433D01*
X123896368Y-98411446D01*
X123663097Y-98374500D01*
X123663092Y-98374500D01*
X123426908Y-98374500D01*
X123426903Y-98374500D01*
X123193631Y-98411446D01*
X122969003Y-98484433D01*
X122758566Y-98591657D01*
X122691404Y-98640454D01*
X122567490Y-98730483D01*
X122567488Y-98730485D01*
X122567487Y-98730485D01*
X122400484Y-98897488D01*
X122375318Y-98932127D01*
X122319987Y-98974792D01*
X122250374Y-98980771D01*
X122188579Y-98948165D01*
X122174682Y-98932127D01*
X122149517Y-98897490D01*
X121982510Y-98730483D01*
X121791433Y-98591657D01*
X121580996Y-98484433D01*
X121356368Y-98411446D01*
X121123097Y-98374500D01*
X121123092Y-98374500D01*
X120886908Y-98374500D01*
X120886903Y-98374500D01*
X120653631Y-98411446D01*
X120429003Y-98484433D01*
X120218566Y-98591657D01*
X120151404Y-98640454D01*
X120027490Y-98730483D01*
X120027488Y-98730485D01*
X120027487Y-98730485D01*
X119860484Y-98897488D01*
X119835318Y-98932127D01*
X119779987Y-98974792D01*
X119710374Y-98980771D01*
X119648579Y-98948165D01*
X119634682Y-98932127D01*
X119609517Y-98897490D01*
X119442510Y-98730483D01*
X119251433Y-98591657D01*
X119040996Y-98484433D01*
X118816368Y-98411446D01*
X118583097Y-98374500D01*
X118583092Y-98374500D01*
X118346908Y-98374500D01*
X118346903Y-98374500D01*
X118113631Y-98411446D01*
X117889003Y-98484433D01*
X117678563Y-98591659D01*
X117554840Y-98681549D01*
X117489034Y-98705029D01*
X117420980Y-98689203D01*
X117373410Y-98640255D01*
X117373047Y-98640454D01*
X117372334Y-98639148D01*
X117372285Y-98639098D01*
X117372187Y-98638880D01*
X117368793Y-98632664D01*
X117282547Y-98517455D01*
X117282544Y-98517452D01*
X117167335Y-98431206D01*
X117167328Y-98431202D01*
X117032482Y-98380908D01*
X117032483Y-98380908D01*
X116972883Y-98374501D01*
X116972881Y-98374500D01*
X116972873Y-98374500D01*
X116972864Y-98374500D01*
X114877129Y-98374500D01*
X114877123Y-98374501D01*
X114817516Y-98380908D01*
X114682671Y-98431202D01*
X114682664Y-98431206D01*
X114567455Y-98517452D01*
X114567452Y-98517455D01*
X114481206Y-98632664D01*
X114481202Y-98632671D01*
X114430908Y-98767517D01*
X114424501Y-98827116D01*
X114424500Y-98827135D01*
X112650500Y-98827135D01*
X112650500Y-85575000D01*
X120019901Y-85575000D01*
X120038252Y-85761331D01*
X120038253Y-85761333D01*
X120092604Y-85940502D01*
X120180862Y-86105623D01*
X120180864Y-86105626D01*
X120299642Y-86250357D01*
X120444373Y-86369135D01*
X120444376Y-86369137D01*
X120609497Y-86457395D01*
X120609499Y-86457396D01*
X120788666Y-86511746D01*
X120788668Y-86511747D01*
X120805374Y-86513392D01*
X120975000Y-86530099D01*
X121161331Y-86511747D01*
X121340501Y-86457396D01*
X121505625Y-86369136D01*
X121650357Y-86250357D01*
X121769136Y-86105625D01*
X121790892Y-86064919D01*
X121839854Y-86015076D01*
X121907991Y-85999615D01*
X121943580Y-86007189D01*
X122042517Y-86044091D01*
X122102127Y-86050500D01*
X122703044Y-86050499D01*
X122770083Y-86070183D01*
X122815838Y-86122987D01*
X122826264Y-86160616D01*
X122839630Y-86279249D01*
X122839631Y-86279254D01*
X122899211Y-86449523D01*
X122949840Y-86530098D01*
X122995184Y-86602262D01*
X123122738Y-86729816D01*
X123213080Y-86786582D01*
X123243646Y-86805788D01*
X123275478Y-86825789D01*
X123388591Y-86865369D01*
X123445745Y-86885368D01*
X123445750Y-86885369D01*
X123624996Y-86905565D01*
X123625000Y-86905565D01*
X123625004Y-86905565D01*
X123804249Y-86885369D01*
X123804252Y-86885368D01*
X123804255Y-86885368D01*
X123974522Y-86825789D01*
X124127262Y-86729816D01*
X124254816Y-86602262D01*
X124350789Y-86449522D01*
X124410368Y-86279255D01*
X124410369Y-86279249D01*
X124423736Y-86160616D01*
X124450802Y-86096202D01*
X124508397Y-86056646D01*
X124546956Y-86050499D01*
X125003044Y-86050499D01*
X125070083Y-86070184D01*
X125115838Y-86122988D01*
X125126264Y-86160616D01*
X125139630Y-86279249D01*
X125139631Y-86279254D01*
X125199211Y-86449523D01*
X125249840Y-86530098D01*
X125295184Y-86602262D01*
X125422738Y-86729816D01*
X125513080Y-86786582D01*
X125543646Y-86805788D01*
X125575478Y-86825789D01*
X125688591Y-86865369D01*
X125745745Y-86885368D01*
X125745750Y-86885369D01*
X125924996Y-86905565D01*
X125925000Y-86905565D01*
X125925004Y-86905565D01*
X126104249Y-86885369D01*
X126104252Y-86885368D01*
X126104255Y-86885368D01*
X126274522Y-86825789D01*
X126427262Y-86729816D01*
X126429611Y-86727466D01*
X126431502Y-86726433D01*
X126432705Y-86725475D01*
X126432872Y-86725685D01*
X126490930Y-86693979D01*
X126560622Y-86698958D01*
X126583267Y-86710148D01*
X126735478Y-86805789D01*
X126792632Y-86825788D01*
X126905745Y-86865368D01*
X126905750Y-86865369D01*
X127084996Y-86885565D01*
X127085000Y-86885565D01*
X127085004Y-86885565D01*
X127264249Y-86865369D01*
X127264252Y-86865368D01*
X127264255Y-86865368D01*
X127434522Y-86805789D01*
X127587262Y-86709816D01*
X127587262Y-86709815D01*
X127593158Y-86706111D01*
X127594699Y-86708563D01*
X127647357Y-86687057D01*
X127716054Y-86699804D01*
X127726561Y-86706557D01*
X127726842Y-86706111D01*
X127732737Y-86709815D01*
X127732738Y-86709816D01*
X127885478Y-86805789D01*
X127942632Y-86825788D01*
X128055745Y-86865368D01*
X128055750Y-86865369D01*
X128234996Y-86885565D01*
X128235000Y-86885565D01*
X128235004Y-86885565D01*
X128414249Y-86865369D01*
X128414252Y-86865368D01*
X128414255Y-86865368D01*
X128584522Y-86805789D01*
X128737262Y-86709816D01*
X128737262Y-86709815D01*
X128743158Y-86706111D01*
X128744699Y-86708563D01*
X128797357Y-86687057D01*
X128866054Y-86699804D01*
X128876561Y-86706557D01*
X128876842Y-86706111D01*
X128882737Y-86709815D01*
X128882738Y-86709816D01*
X129035478Y-86805789D01*
X129092632Y-86825788D01*
X129205745Y-86865368D01*
X129205750Y-86865369D01*
X129384996Y-86885565D01*
X129385000Y-86885565D01*
X129385004Y-86885565D01*
X129564249Y-86865369D01*
X129564252Y-86865368D01*
X129564255Y-86865368D01*
X129734522Y-86805789D01*
X129887262Y-86709816D01*
X130014816Y-86582262D01*
X130110789Y-86429522D01*
X130120731Y-86401110D01*
X130161451Y-86344333D01*
X130226403Y-86318584D01*
X130294965Y-86332039D01*
X130316438Y-86346209D01*
X130344373Y-86369135D01*
X130344376Y-86369137D01*
X130509497Y-86457395D01*
X130509499Y-86457396D01*
X130688666Y-86511746D01*
X130688668Y-86511747D01*
X130705374Y-86513392D01*
X130875000Y-86530099D01*
X131061331Y-86511747D01*
X131240501Y-86457396D01*
X131405625Y-86369136D01*
X131550357Y-86250357D01*
X131669136Y-86105625D01*
X131757396Y-85940501D01*
X131811747Y-85761331D01*
X131830099Y-85575000D01*
X131811747Y-85388669D01*
X131757396Y-85209499D01*
X131669136Y-85044375D01*
X131669135Y-85044373D01*
X131550357Y-84899642D01*
X131405626Y-84780864D01*
X131405623Y-84780862D01*
X131242590Y-84693720D01*
X131192746Y-84644758D01*
X131177285Y-84576620D01*
X131201116Y-84510941D01*
X131221341Y-84489370D01*
X131231143Y-84481145D01*
X131231144Y-84481144D01*
X131354921Y-84333632D01*
X131451202Y-84166868D01*
X131517062Y-83985918D01*
X131550500Y-83796281D01*
X131550500Y-83700000D01*
X131550500Y-83634108D01*
X131550500Y-83603719D01*
X131517062Y-83414082D01*
X131451202Y-83233132D01*
X131354921Y-83066368D01*
X131320608Y-83025475D01*
X131231144Y-82918855D01*
X131083633Y-82795080D01*
X131083632Y-82795079D01*
X131028044Y-82762985D01*
X130916872Y-82698800D01*
X130916869Y-82698799D01*
X130916868Y-82698798D01*
X130894019Y-82690482D01*
X130735917Y-82632937D01*
X130546283Y-82599500D01*
X130546281Y-82599500D01*
X130454388Y-82599500D01*
X130454344Y-82599499D01*
X130324488Y-82599489D01*
X130257451Y-82579799D01*
X130211700Y-82526991D01*
X130200499Y-82475489D01*
X130200499Y-81802129D01*
X130200498Y-81802123D01*
X130200497Y-81802116D01*
X130194091Y-81742517D01*
X130194091Y-81742516D01*
X130144823Y-81610421D01*
X130139839Y-81540729D01*
X130143963Y-81526136D01*
X130160368Y-81479255D01*
X130174266Y-81355908D01*
X130180565Y-81300003D01*
X130180565Y-81299996D01*
X130160369Y-81120750D01*
X130160368Y-81120745D01*
X130100788Y-80950476D01*
X130004815Y-80797737D01*
X129877262Y-80670184D01*
X129724523Y-80574211D01*
X129554254Y-80514631D01*
X129554249Y-80514630D01*
X129375004Y-80494435D01*
X129374996Y-80494435D01*
X129195750Y-80514630D01*
X129195745Y-80514631D01*
X129025476Y-80574211D01*
X128872737Y-80670184D01*
X128745184Y-80797737D01*
X128649211Y-80950476D01*
X128589631Y-81120745D01*
X128589630Y-81120750D01*
X128576208Y-81239883D01*
X128549142Y-81304297D01*
X128491547Y-81343852D01*
X128479175Y-81345824D01*
X128475000Y-81350000D01*
X128475000Y-82475328D01*
X128455315Y-82542367D01*
X128402511Y-82588122D01*
X128350990Y-82599328D01*
X128098990Y-82599307D01*
X128031952Y-82579617D01*
X127986201Y-82526809D01*
X127975000Y-82475307D01*
X127975000Y-81350000D01*
X127965849Y-81340849D01*
X127929973Y-81330315D01*
X127884218Y-81277511D01*
X127873792Y-81239883D01*
X127860369Y-81120750D01*
X127860368Y-81120745D01*
X127800788Y-80950476D01*
X127704815Y-80797737D01*
X127577262Y-80670184D01*
X127424523Y-80574211D01*
X127254254Y-80514631D01*
X127254249Y-80514630D01*
X127075004Y-80494435D01*
X127074996Y-80494435D01*
X126895750Y-80514630D01*
X126895745Y-80514631D01*
X126725476Y-80574211D01*
X126572737Y-80670184D01*
X126445184Y-80797737D01*
X126349211Y-80950476D01*
X126289631Y-81120745D01*
X126289630Y-81120749D01*
X126276264Y-81239384D01*
X126249197Y-81303798D01*
X126191603Y-81343353D01*
X126153044Y-81349500D01*
X125552129Y-81349500D01*
X125552123Y-81349501D01*
X125492515Y-81355909D01*
X125393332Y-81392901D01*
X125323640Y-81397885D01*
X125306668Y-81392901D01*
X125207488Y-81355910D01*
X125207484Y-81355909D01*
X125207483Y-81355909D01*
X125147873Y-81349500D01*
X125147863Y-81349500D01*
X124402129Y-81349500D01*
X124402123Y-81349501D01*
X124342515Y-81355909D01*
X124243332Y-81392901D01*
X124173640Y-81397885D01*
X124156668Y-81392901D01*
X124057485Y-81355909D01*
X124057483Y-81355908D01*
X123997883Y-81349501D01*
X123997881Y-81349500D01*
X123997873Y-81349500D01*
X123997865Y-81349500D01*
X123396956Y-81349500D01*
X123329917Y-81329815D01*
X123284162Y-81277011D01*
X123273736Y-81239384D01*
X123260369Y-81120749D01*
X123260368Y-81120745D01*
X123200788Y-80950476D01*
X123104815Y-80797737D01*
X122977262Y-80670184D01*
X122824523Y-80574211D01*
X122654254Y-80514631D01*
X122654249Y-80514630D01*
X122475004Y-80494435D01*
X122474996Y-80494435D01*
X122295750Y-80514630D01*
X122295745Y-80514631D01*
X122125476Y-80574211D01*
X121972737Y-80670184D01*
X121845184Y-80797737D01*
X121749211Y-80950476D01*
X121689631Y-81120745D01*
X121689630Y-81120750D01*
X121669435Y-81299996D01*
X121669435Y-81300003D01*
X121689631Y-81479252D01*
X121706036Y-81526136D01*
X121709597Y-81595915D01*
X121705176Y-81610423D01*
X121655908Y-81742517D01*
X121649501Y-81802116D01*
X121649501Y-81802123D01*
X121649500Y-81802135D01*
X121649500Y-82474773D01*
X121629815Y-82541812D01*
X121577011Y-82587567D01*
X121525491Y-82598773D01*
X121472793Y-82598769D01*
X121472636Y-82598760D01*
X121465127Y-82598760D01*
X121465126Y-82598760D01*
X121399242Y-82598763D01*
X121399233Y-82598764D01*
X121396625Y-82598764D01*
X121396610Y-82598763D01*
X121325902Y-82598758D01*
X121325748Y-82598767D01*
X121302965Y-82598768D01*
X121302956Y-82598769D01*
X121113339Y-82632213D01*
X121113333Y-82632214D01*
X121113330Y-82632215D01*
X121022860Y-82665146D01*
X120932389Y-82698078D01*
X120932384Y-82698080D01*
X120765636Y-82794357D01*
X120618131Y-82918131D01*
X120494357Y-83065636D01*
X120398080Y-83232384D01*
X120398078Y-83232389D01*
X120332215Y-83413331D01*
X120332213Y-83413339D01*
X120298769Y-83602956D01*
X120298768Y-83602964D01*
X120298767Y-83627223D01*
X120298760Y-83627345D01*
X120298764Y-83699235D01*
X120298764Y-83699249D01*
X120298760Y-83772928D01*
X120298767Y-83773045D01*
X120298768Y-83797035D01*
X120298769Y-83797043D01*
X120332215Y-83986670D01*
X120397807Y-84166865D01*
X120398078Y-84167610D01*
X120398080Y-84167615D01*
X120480053Y-84309590D01*
X120494358Y-84334365D01*
X120618131Y-84481869D01*
X120627691Y-84489891D01*
X120666393Y-84548060D01*
X120667503Y-84617921D01*
X120630667Y-84677291D01*
X120606439Y-84694238D01*
X120444376Y-84780862D01*
X120444373Y-84780864D01*
X120299642Y-84899642D01*
X120180864Y-85044373D01*
X120180862Y-85044376D01*
X120092604Y-85209497D01*
X120038253Y-85388666D01*
X120038252Y-85388668D01*
X120019901Y-85575000D01*
X112650500Y-85575000D01*
X112650500Y-77899500D01*
X112670185Y-77832461D01*
X112722989Y-77786706D01*
X112774500Y-77775500D01*
X139850500Y-77775500D01*
X139917539Y-77795185D01*
G37*
%TD.AperFunction*%
%TD*%
M02*
